<svg width="493" height="370" viewBox="0 0 493 370" fill="none" xmlns="http://www.w3.org/2000/svg">
<g clip-path="url(#clip0_54795_27369)">
<path d="M385.011 124.235C385.011 124.235 380.143 119.512 386.021 117.402C391.9 115.291 401.781 114.953 406.818 119.839C411.855 124.725 413.694 131.5 411.855 136.432C410.016 141.365 410.509 150.262 415.714 154.495C420.919 158.728 425.439 159.159 425.608 163.439C425.709 164.587 425.461 165.739 424.895 166.753C424.329 167.766 423.469 168.596 422.422 169.141C422.422 169.141 425.103 178.412 416.207 179.228C407.311 180.044 386.694 177.269 386.526 176.791C386.358 176.313 389.255 158.402 389.255 158.402L394.292 144.898L388.413 135.943L385.011 124.235Z" fill="black"/>
<path fill-rule="evenodd" clip-rule="evenodd" d="M389.146 289.761L390.264 215.353C390.264 215.353 409.054 187.146 415.209 203.308C421.364 219.47 413.754 253.753 413.754 262.638C413.754 271.524 402.791 320.348 402.791 320.348L384.903 320.138L386.91 293.668L389.146 289.761Z" fill="#F4E3E0"/>
<path d="M402.791 320.791L384.891 320.57C384.83 320.57 384.769 320.557 384.713 320.533C384.657 320.509 384.607 320.474 384.567 320.43C384.487 320.339 384.444 320.222 384.446 320.103L386.466 293.633C386.454 293.575 386.454 293.516 386.466 293.458L388.654 289.645L389.772 215.342C389.772 215.259 389.797 215.178 389.844 215.108C390.337 214.374 401.986 197.034 410.124 197.909C412.528 198.165 414.356 199.926 415.582 203.156C420.09 215.003 417.277 236.436 415.414 250.616C414.716 255.991 414.151 260.248 414.151 262.638C414.151 271.477 403.633 318.447 403.188 320.441C403.168 320.533 403.119 320.616 403.048 320.679C402.977 320.741 402.887 320.781 402.791 320.791ZM385.384 319.707L402.43 319.905C403.416 315.497 413.25 270.999 413.25 262.638C413.25 260.189 413.815 255.922 414.524 250.511C416.375 236.413 419.164 215.108 414.728 203.459C413.634 200.567 412.048 198.993 410.028 198.795C402.707 198.037 391.659 214.047 390.673 215.505L389.555 289.796C389.554 289.866 389.533 289.935 389.495 289.995L387.356 293.854L385.384 319.707Z" fill="black"/>
<path fill-rule="evenodd" clip-rule="evenodd" d="M391.383 121.273L392.897 132.934L395.746 134.403C395.746 134.403 401.288 133.237 401.288 136.024C401.288 138.811 396.756 141.073 396.756 141.073C396.588 143.674 393.739 157.014 393.739 157.014C387.031 158.18 379.974 153.76 379.974 153.76C381.321 152.594 390.216 153.597 390.216 153.597L390.553 143.021C379.145 140.689 385.011 124.153 385.011 124.153L391.383 121.273ZM352.133 160.979C352.133 160.979 342.575 148.781 338.38 143.732C334.184 138.683 327.981 137.389 326.298 138.042C324.615 138.695 324.459 140.642 327.645 142.111C329.665 143.076 331.483 144.397 333.006 146.006C329.821 147.965 325.637 153.003 325.962 156.104C326.286 159.206 331.504 158.436 331.504 158.436C331.504 158.436 335.363 160.221 336.697 161.037C338.031 161.853 342.575 168.686 342.575 168.686C344.775 167.345 352.133 161.002 352.133 161.002V160.979Z" fill="black"/>
<path d="M329.713 229.72C329.715 235.472 327.959 241.096 324.666 245.88C321.373 250.664 316.691 254.393 311.213 256.596C305.735 258.799 299.706 259.377 293.889 258.256C288.073 257.135 282.729 254.366 278.535 250.3C274.341 246.233 271.484 241.051 270.326 235.409C269.169 229.767 269.762 223.919 272.031 218.605C274.299 213.29 278.142 208.747 283.073 205.551C288.004 202.355 293.801 200.649 299.731 200.649C307.68 200.652 315.302 203.715 320.923 209.166C326.545 214.617 329.706 222.009 329.713 229.72Z" fill="#CB6CE6"/>
<path d="M338.572 326.831H123.641C123.575 326.831 123.51 326.818 123.45 326.792C123.39 326.766 123.336 326.727 123.292 326.68C123.25 326.632 123.22 326.576 123.203 326.515C123.186 326.455 123.184 326.392 123.196 326.33L167.675 60.1352C167.692 60.0322 167.746 59.9382 167.828 59.87C167.909 59.8017 168.013 59.7635 168.12 59.7621H377.053C377.119 59.7622 377.184 59.7757 377.244 59.8018C377.304 59.828 377.358 59.8661 377.402 59.9137C377.443 59.9619 377.474 60.0178 377.492 60.0779C377.511 60.138 377.517 60.2011 377.51 60.2635L339.017 326.505C338.991 326.599 338.933 326.683 338.852 326.742C338.772 326.801 338.673 326.832 338.572 326.831ZM124.17 325.957H338.152L376.536 60.6366H168.565L124.17 325.957Z" fill="black"/>
<path fill-rule="evenodd" clip-rule="evenodd" d="M251.982 328.837H124.23V280.165C124.23 263.732 130.959 247.973 142.936 236.352C154.914 224.732 171.16 218.202 188.1 218.199C205.043 218.199 221.291 224.727 233.271 236.348C245.252 247.969 251.982 263.73 251.982 280.165V328.837Z" fill="#F4E3E0"/>
<path d="M251.982 329.269H124.23C124.109 329.269 123.992 329.222 123.907 329.139C123.821 329.056 123.773 328.943 123.773 328.825V280.165C124.099 263.828 131.018 248.267 143.044 236.825C155.07 225.383 171.243 218.973 188.088 218.973C204.933 218.973 221.106 225.383 233.132 236.825C245.158 248.267 252.077 263.828 252.403 280.165V328.837C252.4 328.947 252.355 329.052 252.278 329.131C252.2 329.211 252.095 329.26 251.982 329.269ZM124.675 328.394H251.525V280.165C251.525 263.848 244.843 248.199 232.948 236.661C221.054 225.124 204.921 218.642 188.1 218.642C171.278 218.642 155.146 225.124 143.251 236.661C131.357 248.199 124.675 263.848 124.675 280.165V328.394Z" fill="black"/>
<path d="M251.982 280.165V328.837H238.758V280.165C238.76 264.843 232.908 250.063 222.333 238.682C211.759 227.3 197.211 220.123 181.5 218.537C183.696 218.312 185.903 218.199 188.112 218.199C205.052 218.202 221.298 224.732 233.275 236.352C245.253 247.973 251.982 263.732 251.982 280.165Z" fill="black"/>
<path d="M213.813 329.164H153.706C153.647 329.164 153.588 329.152 153.533 329.13C153.478 329.107 153.429 329.074 153.387 329.033C153.346 328.992 153.313 328.943 153.292 328.889C153.27 328.835 153.26 328.778 153.261 328.72V275.489C153.261 271.605 154.05 267.76 155.582 264.172C157.114 260.584 159.36 257.324 162.191 254.578C165.022 251.832 168.382 249.654 172.081 248.168C175.78 246.681 179.744 245.916 183.748 245.916C187.751 245.916 191.716 246.681 195.414 248.168C199.113 249.654 202.474 251.832 205.305 254.578C208.136 257.324 210.381 260.584 211.914 264.172C213.446 267.76 214.234 271.605 214.234 275.489V328.72C214.235 328.832 214.191 328.94 214.113 329.022C214.035 329.104 213.928 329.155 213.813 329.164ZM154.187 328.289H213.357V275.489C213.357 267.877 210.24 260.578 204.691 255.196C199.143 249.815 191.618 246.791 183.772 246.791C175.925 246.791 168.4 249.815 162.852 255.196C157.304 260.578 154.187 267.877 154.187 275.489V328.289Z" fill="black"/>
<path d="M227.41 129.191H128.521V79.0492H227.41V129.191Z" fill="#CB6CE6"/>
<path d="M222.036 123.99H121.405C121.283 123.99 121.167 123.944 121.082 123.86C120.996 123.777 120.948 123.665 120.948 123.547V72.7989C120.948 72.7407 120.96 72.6831 120.983 72.6294C121.005 72.5756 121.039 72.5268 121.082 72.4856C121.124 72.4445 121.174 72.4118 121.23 72.3896C121.285 72.3673 121.345 72.3558 121.405 72.3558H222.036C222.096 72.3558 222.156 72.3673 222.211 72.3896C222.266 72.4118 222.317 72.4445 222.359 72.4856C222.402 72.5268 222.435 72.5756 222.458 72.6294C222.481 72.6831 222.493 72.7407 222.493 72.7989V123.605C222.478 123.713 222.424 123.811 222.34 123.882C222.256 123.953 222.148 123.991 222.036 123.99ZM121.861 123.104H221.639V73.242H121.861V123.104Z" fill="black"/>
<path d="M50.2497 124.2C50.2497 124.2 46.6433 110.802 46.3187 109.344C45.9941 107.887 47.1602 103.315 50.5382 102.674C53.9163 102.033 55.0944 100.552 57.2943 100.715C59.4258 100.985 61.5878 100.93 63.7017 100.552C66.106 100.062 68.2699 98.4412 69.448 99.3858C70.6261 100.33 72.0326 112.761 72.0326 112.761L63.2449 125.121L50.2497 124.2Z" fill="black"/>
<path d="M65.0363 133.75L78.0074 129.844L80.6882 151.102L75.9999 153.702V201.873C55.8639 211.412 21.2061 193.629 21.2061 193.629C21.2061 193.629 41.33 158.262 45.802 147.195C50.2739 136.129 55.4191 138.741 55.4191 138.741L65.0363 133.75Z" fill="#CB6CE6"/>
<path d="M75.9998 201.873L66.8274 312.733C57.7752 322.494 41.6665 317.608 41.6665 317.608L41.5583 248.517C41.5583 248.517 37.0863 266.731 32.9389 281.809C30.3543 291.242 21.8671 314.681 21.8671 314.681C11.132 318.261 1.43066 310.448 1.43066 310.448L21.206 193.629C58.4364 210.223 75.9998 201.873 75.9998 201.873Z" fill="#FF66C4"/>
<path fill-rule="evenodd" clip-rule="evenodd" d="M60.7927 111.84C64.4059 111.596 67.9947 111.085 71.5279 110.312C71.5279 110.312 75.1343 118.556 73.0907 124.853C71.0471 131.15 64.1467 128.76 64.1467 128.76L65.0363 136.129C61.2375 138.298 55.4192 138.741 55.4192 138.741L55.2028 128.328C55.2028 128.328 50.5024 127.885 50.274 124.2C50.0456 120.515 53.8804 121.6 53.8804 121.6C57.8836 120.725 60.1195 112.049 60.7927 111.84Z" fill="#F4E3E0"/>
<path d="M55.4189 139.173C55.3633 139.173 55.3082 139.164 55.2566 139.144C55.205 139.124 55.158 139.094 55.1184 139.056C55.0707 139.018 55.0329 138.97 55.0079 138.915C54.9828 138.861 54.9713 138.801 54.9741 138.741L54.7577 128.713C52.9305 128.421 49.9491 127.209 49.8289 124.223C49.7485 123.74 49.7932 123.246 49.959 122.784C50.1248 122.321 50.4064 121.907 50.7786 121.576C51.2321 121.3 51.7402 121.119 52.2703 121.045C52.8003 120.97 53.3405 121.004 53.8561 121.145C56.4527 120.48 58.3762 115.968 59.41 113.53C60.0832 111.956 60.2756 111.536 60.6122 111.42H60.7564C64.3363 111.175 67.8925 110.673 71.3954 109.916C71.4972 109.894 71.6035 109.908 71.6958 109.955C71.7881 110.002 71.8604 110.079 71.9003 110.172C72.0566 110.51 75.5068 118.638 73.4871 125.005C73.2606 125.848 72.8563 126.637 72.2997 127.322C71.7431 128.006 71.0464 128.571 70.2534 128.981C68.4821 129.725 66.5031 129.865 64.6394 129.378L65.4448 136.106C65.4568 136.191 65.4426 136.277 65.4041 136.353C65.3656 136.43 65.3044 136.494 65.2284 136.537C62.1656 138.028 58.8347 138.931 55.4189 139.196V139.173ZM52.654 121.891C52.179 121.87 51.71 122.001 51.3196 122.264C51.0639 122.51 50.8743 122.813 50.7674 123.147C50.6605 123.48 50.6396 123.834 50.7065 124.177C50.8988 127.442 55.0462 127.873 55.2145 127.885C55.3251 127.896 55.4277 127.946 55.5029 128.026C55.5782 128.105 55.6209 128.209 55.6233 128.316L55.8396 138.251C58.8556 137.976 61.7979 137.186 64.5312 135.919L63.6776 128.83C63.666 128.758 63.6743 128.684 63.7018 128.616C63.7293 128.549 63.7749 128.49 63.8339 128.445C63.8925 128.396 63.9633 128.363 64.0391 128.348C64.115 128.334 64.1935 128.339 64.2667 128.363C66.0947 128.956 68.0806 128.898 69.8687 128.2C70.555 127.835 71.1554 127.336 71.6315 126.734C72.1076 126.131 72.4489 125.439 72.6336 124.702C74.3767 119.361 71.8883 112.411 71.2391 110.778C67.8625 111.505 64.435 111.988 60.9848 112.224C60.7084 112.743 60.4636 113.276 60.2515 113.822C59.0494 116.621 57.0658 121.308 53.9523 121.985C53.878 122.008 53.7981 122.008 53.7239 121.985C53.3725 121.911 53.0132 121.88 52.654 121.891Z" fill="black"/>
<path fill-rule="evenodd" clip-rule="evenodd" d="M78.7404 135.371L77.8989 129.681C77.8989 129.681 88.6341 126.591 93.8394 123.337C99.1892 119.872 104.338 116.123 109.263 112.108C111.944 109.776 123.015 101.531 123.015 101.531L124.025 108.854L112.954 122.194L83.0922 138.951L78.7404 135.371Z" fill="#F4E3E0"/>
<path d="M83.0924 139.394C82.9866 139.393 82.8846 139.356 82.8039 139.289L78.4401 135.709C78.3584 135.641 78.3068 135.545 78.2959 135.441L77.4544 129.739C77.4356 129.636 77.4572 129.53 77.515 129.441C77.5729 129.353 77.6627 129.288 77.7669 129.261C77.8751 129.261 88.5021 126.147 93.5872 122.964C98.9228 119.512 104.06 115.778 108.975 111.781C111.631 109.519 122.631 101.286 122.751 101.182C122.819 101.144 122.896 101.124 122.974 101.124C123.052 101.124 123.128 101.144 123.196 101.182C123.268 101.213 123.331 101.262 123.38 101.323C123.428 101.384 123.46 101.455 123.472 101.531L124.47 108.854C124.482 108.912 124.479 108.972 124.463 109.029C124.446 109.086 124.416 109.138 124.374 109.181L113.302 122.439C113.271 122.479 113.229 122.511 113.182 122.533L83.3208 139.336C83.2507 139.373 83.1723 139.393 83.0924 139.394ZM79.1614 135.15L83.1525 138.426L112.653 121.856L123.581 108.726L122.703 102.336C120.299 104.12 111.884 110.499 109.588 112.434C104.643 116.462 99.4744 120.222 94.1041 123.699C89.3917 126.649 80.3996 129.401 78.4762 129.984L79.1614 135.15Z" fill="black"/>
<path fill-rule="evenodd" clip-rule="evenodd" d="M93.6711 130.171C97.3617 127.722 106.75 121.868 109.095 120.41C111.439 118.953 117.654 114.871 119.157 112.924C120.659 110.977 125.54 106.732 127.716 107.548C129.892 108.365 127.043 111.128 127.043 111.128C127.525 110.866 128.063 110.715 128.616 110.686C129.168 110.658 129.72 110.753 130.228 110.965C131.575 111.781 127.379 115.524 127.379 115.524C127.555 115.435 127.748 115.381 127.946 115.366C128.144 115.35 128.344 115.374 128.532 115.435C128.721 115.496 128.895 115.593 129.043 115.72C129.192 115.848 129.313 116.003 129.399 116.177C130.06 117.472 124.362 121.052 122.691 122.008C121.02 122.964 116.812 122.987 116.812 122.987C116.812 122.987 101.185 136.817 95.1738 140.887C89.1631 144.957 79.7983 146.309 79.7983 146.309L78.5962 135.569C78.5962 135.569 89.9805 132.608 93.6711 130.171Z" fill="#F4E3E0"/>
<path d="M79.7986 146.764C79.6998 146.766 79.6031 146.737 79.5221 146.682C79.4282 146.606 79.368 146.497 79.3538 146.379L78.1516 135.639C78.1423 135.536 78.1709 135.432 78.2325 135.347C78.294 135.262 78.3846 135.2 78.4882 135.173C78.5964 135.173 89.8004 132.176 93.3828 129.809C95.7871 128.2 100.992 124.935 108.758 120.084C111.667 118.276 117.39 114.452 118.772 112.656C120.155 110.86 125.252 106.172 127.86 107.14C128.131 107.222 128.373 107.374 128.562 107.579C128.75 107.785 128.878 108.036 128.93 108.306C128.993 109.024 128.779 109.739 128.329 110.312C129.053 110.174 129.805 110.294 130.445 110.65C130.578 110.731 130.691 110.84 130.774 110.969C130.858 111.099 130.909 111.245 130.926 111.396C131.022 112.399 129.603 114.02 128.582 115.035C128.846 115.106 129.09 115.233 129.298 115.406C129.506 115.579 129.672 115.795 129.784 116.038C130.649 117.717 125.264 121.098 122.908 122.463C121.321 123.384 117.822 123.489 116.981 123.5C115.466 124.841 101.125 137.494 95.4265 141.318C89.4157 145.4 80.2434 146.764 79.7986 146.822V146.764ZM79.1133 135.919L80.1953 145.819C82.1428 145.481 89.8125 144 94.9216 140.549C100.86 136.549 116.356 122.824 116.56 122.684C116.643 122.612 116.749 122.571 116.861 122.568C116.861 122.568 120.948 122.568 122.499 121.658C126.514 119.326 129.315 116.9 129.038 116.376C128.974 116.207 128.858 116.061 128.705 115.959C128.552 115.857 128.371 115.803 128.185 115.804C127.996 115.806 127.808 115.842 127.632 115.909C127.535 115.959 127.422 115.972 127.316 115.947C127.209 115.921 127.116 115.858 127.055 115.769C126.995 115.681 126.969 115.575 126.982 115.471C126.996 115.366 127.047 115.269 127.127 115.198C128.606 113.88 130.156 112.061 130.096 111.42C129.657 111.22 129.175 111.125 128.69 111.141C128.205 111.157 127.731 111.285 127.307 111.513C127.212 111.563 127.102 111.578 126.997 111.557C126.891 111.536 126.797 111.479 126.73 111.396C126.661 111.317 126.623 111.215 126.623 111.111C126.623 111.006 126.661 110.905 126.73 110.825C127.319 110.242 128.221 109.076 128.077 108.435C128.077 108.306 127.957 108.108 127.56 107.957C125.793 107.315 121.164 111.058 119.517 113.181C117.69 115.513 109.684 120.562 109.347 120.772C101.509 125.658 96.3401 128.934 93.9238 130.532C90.5458 132.759 81.133 135.371 79.1013 135.919H79.1133Z" fill="black"/>
<path fill-rule="evenodd" clip-rule="evenodd" d="M185.924 369.02H88.4058V309.935H185.924V369.02Z" fill="#F4E3E0"/>
<path d="M185.924 369.464H88.4057C88.2867 369.461 88.1735 369.413 88.0905 369.33C88.0074 369.247 87.9609 369.136 87.9609 369.02V309.935C87.964 309.821 88.0118 309.713 88.0946 309.633C88.1773 309.553 88.2887 309.506 88.4057 309.503H185.924C186.042 309.503 186.155 309.549 186.238 309.63C186.322 309.711 186.369 309.82 186.369 309.935V369.02C186.37 369.078 186.36 369.135 186.338 369.189C186.317 369.243 186.284 369.292 186.243 369.333C186.201 369.374 186.152 369.407 186.097 369.43C186.042 369.452 185.983 369.464 185.924 369.464ZM88.8625 368.589H185.467V310.378H88.8625V368.589Z" fill="black"/>
<path d="M185.924 369.02H149.403V309.935H185.924V369.02Z" fill="black"/>
<path d="M177.088 173.887C177.088 178.35 175.724 182.712 173.168 186.423C170.612 190.134 166.979 193.026 162.728 194.733C158.478 196.441 153.801 196.888 149.288 196.017C144.776 195.147 140.631 192.998 137.378 189.842C134.125 186.687 131.909 182.666 131.012 178.289C130.114 173.912 130.575 169.375 132.336 165.252C134.096 161.129 137.078 157.605 140.903 155.126C144.728 152.647 149.226 151.323 153.826 151.323C156.882 151.322 159.907 151.904 162.73 153.038C165.553 154.171 168.118 155.833 170.278 157.929C172.439 160.024 174.152 162.512 175.321 165.251C176.489 167.989 177.09 170.924 177.088 173.887Z" fill="#CB6CE6"/>
<path d="M155.87 168.535C155.673 168.727 155.563 168.987 155.563 169.258C155.563 169.529 155.673 169.789 155.87 169.981L157.577 171.637C157.777 171.828 158.047 171.936 158.328 171.936C158.61 171.936 158.88 171.828 159.08 171.637L163.095 167.742C163.617 168.89 163.769 170.165 163.529 171.398C163.289 172.632 162.669 173.765 161.75 174.65C160.832 175.534 159.659 176.127 158.386 176.351C157.113 176.575 155.8 176.42 154.62 175.905L147.251 183.076C146.827 183.487 146.251 183.718 145.652 183.718C145.052 183.718 144.477 183.487 144.053 183.076C143.629 182.665 143.391 182.107 143.391 181.525C143.391 180.943 143.629 180.385 144.053 179.974L151.422 172.814C150.906 171.666 150.76 170.394 151.003 169.164C151.245 167.934 151.865 166.804 152.782 165.921C153.698 165.039 154.867 164.446 156.137 164.219C157.407 163.993 158.717 164.143 159.897 164.652L155.882 168.546L155.87 168.535Z" fill="#F4E3E0"/>
<path d="M145.652 184.242C144.932 184.238 144.242 183.962 143.729 183.472C143.221 182.976 142.936 182.306 142.936 181.607C142.936 180.908 143.221 180.237 143.729 179.741L150.942 172.803C150.434 171.572 150.318 170.222 150.608 168.927C150.897 167.631 151.58 166.449 152.567 165.533C153.554 164.617 154.802 164.008 156.149 163.784C157.496 163.561 158.881 163.733 160.126 164.279C160.196 164.305 160.258 164.349 160.304 164.407C160.351 164.464 160.38 164.533 160.39 164.605C160.401 164.674 160.396 164.744 160.375 164.811C160.354 164.877 160.319 164.939 160.27 164.99L156.255 168.885L155.918 168.581L156.243 168.885C156.134 168.999 156.073 169.149 156.073 169.304C156.073 169.46 156.134 169.61 156.243 169.724L157.95 171.38C158.064 171.488 158.218 171.548 158.377 171.548C158.536 171.548 158.689 171.488 158.804 171.38L162.831 167.474C162.882 167.424 162.945 167.388 163.014 167.368C163.083 167.347 163.157 167.344 163.227 167.357C163.299 167.37 163.367 167.399 163.425 167.442C163.483 167.484 163.531 167.539 163.564 167.602C164.131 168.81 164.311 170.156 164.082 171.464C163.853 172.773 163.226 173.985 162.281 174.945C161.335 175.905 160.115 176.568 158.778 176.849C157.44 177.13 156.047 177.017 154.776 176.523L147.564 183.519C147.047 183.991 146.362 184.25 145.652 184.242ZM157.241 164.512C156.411 164.52 155.593 164.695 154.836 165.025C153.406 165.668 152.294 166.83 151.739 168.26C151.183 169.691 151.229 171.276 151.867 172.674C151.907 172.755 151.92 172.845 151.905 172.932C151.89 173.02 151.847 173.101 151.783 173.164L144.402 180.312C144.101 180.649 143.943 181.083 143.96 181.528C143.976 181.973 144.166 182.395 144.49 182.71C144.815 183.025 145.25 183.209 145.709 183.225C146.168 183.241 146.616 183.088 146.962 182.796L154.344 175.648C154.409 175.586 154.492 175.545 154.582 175.528C154.671 175.512 154.764 175.521 154.849 175.555C155.895 176.011 157.055 176.163 158.189 175.994C159.323 175.826 160.382 175.343 161.24 174.603C162.097 173.864 162.716 172.9 163.022 171.828C163.327 170.755 163.307 169.62 162.963 168.558L159.429 171.986C159.144 172.255 158.762 172.405 158.365 172.405C157.967 172.405 157.586 172.255 157.301 171.986L155.558 170.249C155.281 169.973 155.126 169.602 155.126 169.217C155.126 168.832 155.281 168.461 155.558 168.185L159.092 164.757C158.492 164.582 157.867 164.499 157.241 164.512Z" fill="black"/>
<path d="M286.688 104.785C286.688 104.902 286.64 105.015 286.554 105.098C286.468 105.181 286.352 105.228 286.231 105.228H238.59C238.471 105.225 238.358 105.177 238.275 105.094C238.192 105.011 238.145 104.9 238.145 104.785C238.145 104.728 238.157 104.672 238.179 104.62C238.201 104.567 238.234 104.52 238.275 104.48C238.317 104.44 238.366 104.408 238.42 104.386C238.474 104.364 238.531 104.353 238.59 104.353H286.231C286.29 104.352 286.349 104.362 286.405 104.383C286.46 104.404 286.511 104.435 286.553 104.475C286.596 104.516 286.63 104.564 286.653 104.617C286.676 104.67 286.688 104.727 286.688 104.785ZM308.326 104.353H293.275C293.217 104.352 293.158 104.362 293.103 104.383C293.049 104.404 292.999 104.436 292.957 104.476C292.916 104.516 292.883 104.565 292.861 104.618C292.839 104.671 292.829 104.728 292.831 104.785C292.829 104.842 292.839 104.9 292.861 104.953C292.883 105.007 292.915 105.056 292.957 105.097C292.998 105.139 293.048 105.172 293.102 105.194C293.157 105.216 293.216 105.228 293.275 105.228H308.374C308.496 105.228 308.612 105.181 308.697 105.098C308.783 105.015 308.831 104.902 308.831 104.785C308.831 104.727 308.819 104.67 308.796 104.617C308.773 104.564 308.739 104.516 308.697 104.475C308.654 104.435 308.604 104.404 308.548 104.383C308.493 104.362 308.434 104.352 308.374 104.353H308.326ZM193.81 144.385L183.435 156.956H220.233C220.346 156.345 220.69 155.797 221.199 155.42C221.707 155.043 222.343 154.864 222.98 154.919C223.617 154.974 224.211 155.258 224.643 155.716C225.075 156.174 225.314 156.772 225.314 157.393C225.314 158.014 225.075 158.612 224.643 159.07C224.211 159.528 223.617 159.812 222.98 159.867C222.343 159.922 221.707 159.743 221.199 159.366C220.69 158.989 220.346 158.441 220.233 157.83H182.762L174.347 168.08C174.306 168.131 174.253 168.172 174.192 168.2C174.132 168.229 174.066 168.243 173.999 168.243C173.894 168.248 173.791 168.215 173.71 168.15C173.617 168.077 173.557 167.971 173.543 167.855C173.53 167.74 173.564 167.624 173.638 167.532L193.305 143.674C193.349 143.623 193.404 143.581 193.467 143.553C193.529 143.525 193.597 143.51 193.666 143.511H220.353C220.524 142.913 220.92 142.398 221.463 142.069C222.005 141.74 222.655 141.62 223.284 141.732C223.913 141.845 224.476 142.181 224.862 142.676C225.248 143.171 225.43 143.788 225.37 144.406C225.311 145.024 225.015 145.598 224.541 146.015C224.067 146.432 223.45 146.661 222.81 146.659C222.17 146.656 221.555 146.421 221.084 146.001C220.614 145.58 220.323 145.003 220.269 144.385H193.81ZM221.099 144.164C221.096 144.487 221.193 144.804 221.376 145.074C221.56 145.344 221.822 145.555 222.129 145.68C222.437 145.805 222.775 145.839 223.103 145.778C223.43 145.716 223.731 145.562 223.967 145.334C224.204 145.106 224.365 144.815 224.431 144.498C224.497 144.181 224.465 143.852 224.338 143.553C224.211 143.254 223.995 142.999 223.718 142.819C223.441 142.639 223.115 142.543 222.782 142.543C222.346 142.555 221.932 142.731 221.627 143.033C221.322 143.335 221.15 143.741 221.147 144.164H221.099ZM221.099 157.282C221.096 157.605 221.193 157.922 221.376 158.192C221.56 158.462 221.822 158.673 222.129 158.799C222.437 158.924 222.775 158.958 223.103 158.896C223.43 158.835 223.731 158.68 223.967 158.452C224.204 158.224 224.365 157.934 224.431 157.617C224.497 157.3 224.465 156.971 224.338 156.672C224.211 156.373 223.995 156.117 223.718 155.937C223.441 155.757 223.115 155.661 222.782 155.661C222.346 155.673 221.932 155.849 221.627 156.151C221.322 156.454 221.15 156.859 221.147 157.282H221.099ZM267.393 142.426H234.238C234.179 142.425 234.12 142.435 234.064 142.456C234.009 142.477 233.958 142.508 233.916 142.548C233.873 142.588 233.839 142.637 233.816 142.69C233.793 142.743 233.781 142.8 233.781 142.858C233.781 142.975 233.829 143.088 233.915 143.171C234.001 143.254 234.117 143.301 234.238 143.301H267.441C267.563 143.301 267.679 143.254 267.764 143.171C267.85 143.088 267.898 142.975 267.898 142.858C267.898 142.8 267.886 142.743 267.863 142.69C267.84 142.637 267.806 142.588 267.764 142.548C267.721 142.508 267.671 142.477 267.615 142.456C267.56 142.435 267.501 142.425 267.441 142.426H267.393ZM267.393 157.585H259.688C259.566 157.585 259.45 157.632 259.365 157.715C259.279 157.798 259.231 157.911 259.231 158.028C259.231 158.086 259.243 158.143 259.266 158.196C259.289 158.249 259.323 158.297 259.365 158.338C259.408 158.378 259.458 158.409 259.514 158.43C259.569 158.451 259.628 158.461 259.688 158.46H267.393C267.453 158.461 267.512 158.451 267.567 158.43C267.623 158.409 267.673 158.378 267.716 158.338C267.758 158.297 267.792 158.249 267.815 158.196C267.838 158.143 267.85 158.086 267.85 158.028C267.851 157.919 267.809 157.812 267.734 157.73C267.658 157.649 267.554 157.597 267.441 157.585H267.393ZM253.641 157.585H234.238C234.117 157.585 234.001 157.632 233.915 157.715C233.829 157.798 233.781 157.911 233.781 158.028C233.781 158.086 233.793 158.143 233.816 158.196C233.839 158.249 233.873 158.297 233.916 158.338C233.958 158.378 234.009 158.409 234.064 158.43C234.12 158.451 234.179 158.461 234.238 158.46H253.689C253.748 158.461 253.807 158.451 253.863 158.43C253.918 158.409 253.969 158.378 254.011 158.338C254.054 158.297 254.088 158.249 254.111 158.196C254.134 158.143 254.146 158.086 254.146 158.028C254.146 157.911 254.098 157.798 254.012 157.715C253.926 157.632 253.81 157.585 253.689 157.585H253.641ZM311.115 78.5711C311.075 78.6802 310.991 78.7694 310.883 78.8195C310.775 78.8697 310.652 78.8768 310.538 78.8393C306.932 77.6732 303.506 79.5506 299.515 81.7778C294.213 84.728 288.202 88.0747 280.28 84.6814C277.635 83.5139 274.848 82.6754 271.985 82.1859C272.047 82.67 272.047 83.1595 271.985 83.6436C271.469 86.8736 268.163 89.474 265.097 90.5235C263.947 90.9594 262.726 91.1924 261.491 91.2115C260.251 91.2677 259.031 90.8912 258.053 90.1503C257.313 89.5628 256.834 88.722 256.716 87.8017C256.597 86.8815 256.848 85.9522 257.415 85.2061C259.339 82.2559 264.256 80.4252 270.855 81.1714C270.233 79.6857 269.186 78.4032 267.838 77.4749C257.848 69.9653 239.071 84.4715 238.878 84.6231C238.833 84.6591 238.78 84.6859 238.723 84.7022C238.667 84.7184 238.608 84.7237 238.549 84.7178C238.491 84.7118 238.434 84.6947 238.382 84.6675C238.33 84.6402 238.284 84.6033 238.247 84.5589C238.21 84.5145 238.182 84.4635 238.166 84.4087C238.149 84.3539 238.143 84.2964 238.15 84.2396C238.156 84.1827 238.173 84.1276 238.201 84.0773C238.23 84.0271 238.268 83.9827 238.313 83.9467C241.711 81.3844 245.383 79.1834 249.265 77.3817C257.379 73.6852 264.003 73.4753 268.391 76.7753C270.032 77.873 271.257 79.4623 271.877 81.2997C274.927 81.7829 277.898 82.6533 280.713 83.8884C288.178 87.0835 293.937 83.8884 299.094 81.0199C303.109 78.7926 306.896 76.682 310.875 78.0113C310.981 78.0575 311.065 78.1411 311.109 78.2451C311.154 78.349 311.156 78.4656 311.115 78.5711ZM271.096 82.0693C270.088 81.9376 269.072 81.8714 268.054 81.8711C262.825 81.8711 259.435 83.7602 258.173 85.6959C257.72 86.2643 257.516 86.9823 257.604 87.6954C257.691 88.4085 258.064 89.0598 258.642 89.509C259.904 90.5585 262.248 90.6751 264.797 89.7305C267.61 88.716 270.651 86.4072 271.108 83.5386C271.196 83.0454 271.205 82.5417 271.132 82.046L271.096 82.0693Z" fill="black"/>
<path d="M140.891 89.4973C140.786 89.4958 140.684 89.4587 140.603 89.3924L136.167 85.7658C136.118 85.7274 136.078 85.6796 136.049 85.6255C136.02 85.5713 136.003 85.5119 135.999 85.451C135.999 85.3264 136.046 85.2062 136.131 85.1128L140.23 81.1598C140.316 81.0763 140.433 81.0294 140.555 81.0294C140.676 81.0294 140.793 81.0763 140.879 81.1598C140.965 81.2433 141.014 81.3565 141.014 81.4746C141.014 81.5927 140.965 81.706 140.879 81.7895L137.141 85.4043L141.192 88.716C141.275 88.7988 141.321 88.9096 141.321 89.0251C141.321 89.1405 141.275 89.2513 141.192 89.3341C141.115 89.4218 141.008 89.4797 140.891 89.4973ZM153.887 89.3924L158.334 85.7658C158.382 85.7268 158.42 85.6787 158.447 85.6244C158.474 85.5702 158.489 85.5111 158.491 85.451C158.496 85.3886 158.487 85.3259 158.464 85.2674C158.441 85.2089 158.405 85.1561 158.359 85.1128L154.259 81.1598C154.173 81.0763 154.056 81.0294 153.935 81.0294C153.813 81.0294 153.696 81.0763 153.61 81.1598C153.524 81.2433 153.476 81.3565 153.476 81.4746C153.476 81.5927 153.524 81.706 153.61 81.7895L157.361 85.4043L153.297 88.716C153.226 88.775 153.174 88.854 153.151 88.9422C153.127 89.0305 153.132 89.1237 153.165 89.2091C153.198 89.2946 153.257 89.3681 153.334 89.4197C153.412 89.4713 153.504 89.4984 153.598 89.4973C153.704 89.4979 153.807 89.4605 153.887 89.3924ZM152.684 85.3227C152.684 85.2052 152.636 85.0925 152.551 85.0094C152.465 84.9263 152.349 84.8796 152.228 84.8796H142.815C142.694 84.8796 142.577 84.9263 142.492 85.0094C142.406 85.0925 142.358 85.2052 142.358 85.3227C142.358 85.4402 142.406 85.5529 142.492 85.636C142.577 85.7191 142.694 85.7658 142.815 85.7658H152.155C152.216 85.7674 152.277 85.7571 152.334 85.7355C152.391 85.7139 152.443 85.6816 152.486 85.6402C152.53 85.5989 152.565 85.5496 152.588 85.495C152.612 85.4405 152.624 85.3819 152.624 85.3227H152.684ZM140.338 115.046C140.422 114.962 140.469 114.849 140.469 114.731C140.469 114.614 140.422 114.501 140.338 114.417L136.287 111.105L140.026 107.49C140.112 107.407 140.16 107.293 140.16 107.175C140.16 107.057 140.112 106.944 140.026 106.86C139.94 106.777 139.823 106.73 139.701 106.73C139.579 106.73 139.463 106.777 139.377 106.86L135.229 110.778C135.181 110.819 135.142 110.869 135.116 110.925C135.089 110.982 135.075 111.043 135.075 111.105C135.075 111.167 135.089 111.228 135.116 111.284C135.142 111.341 135.181 111.391 135.229 111.431L139.665 115.058C139.749 115.127 139.856 115.164 139.966 115.163C140.033 115.172 140.101 115.167 140.166 115.147C140.231 115.126 140.29 115.092 140.338 115.046ZM161.556 115.046L165.992 111.42C166.041 111.382 166.08 111.334 166.107 111.279C166.134 111.225 166.148 111.165 166.148 111.105C166.154 111.043 166.145 110.98 166.122 110.921C166.099 110.863 166.063 110.81 166.016 110.767L161.917 106.814C161.831 106.73 161.714 106.683 161.592 106.683C161.471 106.683 161.354 106.73 161.268 106.814C161.182 106.897 161.133 107.01 161.133 107.129C161.133 107.247 161.182 107.36 161.268 107.443L165.018 111.058L160.955 114.37C160.912 114.411 160.878 114.46 160.855 114.514C160.832 114.568 160.82 114.626 160.82 114.685C160.82 114.743 160.832 114.801 160.855 114.855C160.878 114.909 160.912 114.958 160.955 115C160.997 115.049 161.051 115.089 161.111 115.115C161.172 115.141 161.238 115.154 161.304 115.151C161.392 115.155 161.479 115.134 161.556 115.093V115.046ZM151.711 110.977C151.711 110.859 151.663 110.746 151.577 110.663C151.491 110.58 151.375 110.534 151.254 110.534H141.925C141.804 110.534 141.688 110.58 141.602 110.663C141.516 110.746 141.468 110.859 141.468 110.977C141.468 111.094 141.516 111.207 141.602 111.29C141.688 111.373 141.804 111.42 141.925 111.42H151.23C151.347 111.426 151.463 111.389 151.552 111.315C151.642 111.241 151.698 111.137 151.711 111.023V110.977ZM207.009 95.1529C207.009 95.0353 206.961 94.9226 206.876 94.8395C206.79 94.7564 206.674 94.7097 206.553 94.7097H148.297C148.175 94.7097 148.059 94.7564 147.974 94.8395C147.888 94.9226 147.84 95.0353 147.84 95.1529C147.84 95.2704 147.888 95.3831 147.974 95.4662C148.059 95.5493 148.175 95.596 148.297 95.596H206.589C206.702 95.5966 206.811 95.5563 206.896 95.4831C206.98 95.4098 207.033 95.3088 207.045 95.1995L207.009 95.1529ZM207.009 99.549C207.009 99.4315 206.961 99.3188 206.876 99.2357C206.79 99.1526 206.674 99.1059 206.553 99.1059H148.297C148.175 99.1059 148.059 99.1526 147.974 99.2357C147.888 99.3188 147.84 99.4315 147.84 99.549C147.84 99.6665 147.888 99.7792 147.974 99.8623C148.059 99.9454 148.175 99.9921 148.297 99.9921H206.589C206.702 99.9927 206.811 99.9525 206.896 99.8792C206.98 99.806 207.033 99.7049 207.045 99.5957L207.009 99.549ZM215.881 111.082C215.881 110.964 215.833 110.851 215.747 110.768C215.662 110.685 215.546 110.639 215.424 110.639H193.894C193.773 110.639 193.657 110.685 193.571 110.768C193.485 110.851 193.437 110.964 193.437 111.082C193.437 111.199 193.485 111.312 193.571 111.395C193.657 111.478 193.773 111.525 193.894 111.525H215.46C215.574 111.525 215.683 111.485 215.768 111.412C215.852 111.339 215.905 111.238 215.917 111.128L215.881 111.082ZM154.211 114.906L157.818 107.91C157.844 107.858 157.86 107.801 157.865 107.743C157.869 107.685 157.861 107.627 157.842 107.571C157.823 107.516 157.793 107.465 157.754 107.421C157.715 107.377 157.667 107.341 157.613 107.315C157.504 107.268 157.381 107.263 157.267 107.299C157.154 107.336 157.059 107.412 157 107.513L153.394 114.51C153.339 114.615 153.331 114.737 153.369 114.848C153.407 114.96 153.49 115.052 153.598 115.105C153.706 115.157 153.832 115.166 153.947 115.129C154.062 115.092 154.157 115.012 154.211 114.906ZM215.521 76.2622C215.339 76.2622 215.162 76.3145 215.012 76.4124C214.861 76.5103 214.744 76.6494 214.675 76.812C214.607 76.9747 214.589 77.1535 214.625 77.3257C214.662 77.4979 214.75 77.6558 214.879 77.7792C215.008 77.9027 215.172 77.9862 215.35 78.019C215.528 78.0519 215.712 78.0327 215.879 77.9638C216.045 77.8949 216.187 77.7795 216.286 77.6323C216.385 77.485 216.437 77.3125 216.434 77.1368C216.419 76.916 216.32 76.7085 216.155 76.5553C215.99 76.4021 215.773 76.3142 215.545 76.3089L215.521 76.2622ZM215.521 80.9266C215.34 80.9266 215.163 80.9785 215.013 81.0759C214.863 81.1733 214.746 81.3117 214.676 81.4737C214.607 81.6356 214.589 81.8138 214.624 81.9857C214.66 82.1576 214.747 82.3155 214.875 82.4395C215.002 82.5634 215.165 82.6478 215.342 82.682C215.52 82.7162 215.703 82.6986 215.87 82.6316C216.037 82.5645 216.18 82.4509 216.28 82.3052C216.381 82.1594 216.434 81.9881 216.434 81.8128C216.408 81.6003 216.304 81.4042 216.14 81.2606C215.977 81.117 215.765 81.0356 215.545 81.0315L215.521 80.9266ZM215.521 85.6609C215.343 85.6632 215.17 85.7164 215.023 85.8139C214.876 85.9114 214.763 86.0488 214.696 86.2088C214.63 86.3688 214.614 86.5442 214.65 86.7131C214.686 86.882 214.773 87.0367 214.899 87.1579C215.026 87.279 215.186 87.3612 215.361 87.394C215.536 87.4268 215.716 87.4088 215.88 87.3423C216.044 87.2758 216.184 87.1637 216.283 87.0201C216.382 86.8765 216.434 86.7079 216.434 86.5355C216.408 86.3241 216.303 86.1294 216.139 85.9877C215.975 85.846 215.764 85.7671 215.545 85.7658L215.521 85.6609Z" fill="black"/>
<path d="M169.695 52.8238L173.433 30.4699C173.716 28.8467 174.58 27.3722 175.873 26.3058C177.166 25.2394 178.805 24.6494 180.502 24.6395H375.081C376.104 24.6473 377.113 24.8661 378.042 25.2811C378.971 25.6961 379.798 26.298 380.469 27.0467C381.139 27.7955 381.638 28.674 381.932 29.624C382.226 30.5741 382.309 31.5739 382.174 32.5572L379.241 52.8238H169.695Z" fill="black"/>
<path fill-rule="evenodd" clip-rule="evenodd" d="M196.563 38.4809C196.563 39.814 196.155 41.1171 195.392 42.2255C194.628 43.3339 193.543 44.1977 192.273 44.7079C191.004 45.218 189.607 45.3515 188.259 45.0914C186.911 44.8314 185.673 44.1894 184.701 43.2468C183.729 42.3042 183.068 41.1033 182.8 39.7958C182.531 38.4884 182.669 37.1332 183.195 35.9017C183.721 34.6701 184.611 33.6174 185.754 32.8768C186.897 32.1362 188.24 31.7409 189.614 31.7409C191.457 31.7409 193.225 32.451 194.528 33.715C195.831 34.979 196.563 36.6934 196.563 38.4809ZM371.223 32.872C371.223 32.7565 371.176 32.6455 371.093 32.5628C371.01 32.48 370.897 32.432 370.778 32.4289H360.487C360.422 32.4185 360.355 32.4221 360.291 32.4393C360.227 32.4565 360.168 32.4869 360.118 32.5285C360.067 32.5701 360.027 32.6219 359.999 32.6802C359.971 32.7385 359.957 32.802 359.957 32.8662C359.957 32.9305 359.971 32.994 359.999 33.0523C360.027 33.1106 360.067 33.1623 360.118 33.2039C360.168 33.2455 360.227 33.276 360.291 33.2932C360.355 33.3104 360.422 33.3139 360.487 33.3035H370.778C370.895 33.3005 371.006 33.2541 371.089 33.1739C371.172 33.0936 371.22 32.9855 371.223 32.872ZM370.778 37.6413C370.778 37.5238 370.73 37.4111 370.644 37.328C370.558 37.2449 370.442 37.1982 370.321 37.1982H360.043C359.921 37.1982 359.805 37.2449 359.72 37.328C359.634 37.4111 359.586 37.5238 359.586 37.6413C359.586 37.699 359.598 37.7561 359.621 37.8092C359.644 37.8623 359.678 37.9104 359.72 37.9506C359.763 37.9909 359.813 38.0224 359.869 38.0434C359.924 38.0644 359.983 38.0744 360.043 38.0728H370.321C370.38 38.0744 370.44 38.0644 370.495 38.0434C370.55 38.0224 370.601 37.9909 370.643 37.9506C370.686 37.9104 370.72 37.8623 370.743 37.8092C370.766 37.7561 370.778 37.699 370.778 37.6413ZM369.888 43.2852C369.888 43.1677 369.84 43.055 369.754 42.9719C369.669 42.8888 369.553 42.8421 369.431 42.8421H359.201C359.094 42.8591 358.997 42.9124 358.927 42.9925C358.857 43.0726 358.818 43.1743 358.818 43.2794C358.818 43.3845 358.857 43.4862 358.927 43.5663C358.997 43.6464 359.094 43.6997 359.201 43.7167H369.492C369.6 43.7027 369.7 43.6515 369.772 43.5723C369.845 43.4932 369.886 43.3913 369.888 43.2852Z" fill="#F4E3E0"/>
<path d="M262.501 182.131H191.574C190.804 182.128 190.068 181.83 189.525 181.301C188.982 180.772 188.677 180.056 188.677 179.309C188.675 178.939 188.749 178.573 188.894 178.23C189.039 177.888 189.252 177.577 189.521 177.315C189.79 177.053 190.11 176.845 190.462 176.703C190.815 176.561 191.192 176.488 191.574 176.488H262.501C263.272 176.488 264.012 176.785 264.558 177.314C265.103 177.843 265.41 178.561 265.41 179.309C265.407 180.057 265.099 180.773 264.554 181.302C264.009 181.83 263.271 182.128 262.501 182.131Z" fill="#CB6CE6"/>
<path d="M316.429 182.563H191.622C190.766 182.513 189.961 182.148 189.373 181.542C188.785 180.937 188.457 180.136 188.457 179.304C188.457 178.471 188.785 177.671 189.373 177.065C189.961 176.459 190.766 176.094 191.622 176.044H316.429C317.285 176.094 318.09 176.459 318.678 177.065C319.266 177.671 319.594 178.471 319.594 179.304C319.594 180.136 319.266 180.937 318.678 181.542C318.09 182.148 317.285 182.513 316.429 182.563ZM191.622 176.919C190.97 176.919 190.345 177.17 189.884 177.617C189.423 178.065 189.164 178.671 189.164 179.304C189.164 179.936 189.423 180.543 189.884 180.99C190.345 181.437 190.97 181.688 191.622 181.688H316.429C317.081 181.688 317.706 181.437 318.167 180.99C318.628 180.543 318.887 179.936 318.887 179.304C318.887 178.671 318.628 178.065 318.167 177.617C317.706 177.17 317.081 176.919 316.429 176.919H191.622Z" fill="black"/>
<path d="M306.186 323.007C306.186 325.481 305.173 327.854 303.37 329.603C301.566 331.353 299.12 332.335 296.569 332.335H280.869C278.318 332.335 275.872 331.353 274.069 329.603C272.265 327.854 271.252 325.481 271.252 323.007V295.394C271.256 294.253 271.685 293.152 272.461 292.295C273.237 291.437 274.306 290.881 275.471 290.729L276.746 290.566C285.127 289.492 293.621 289.535 301.991 290.694C303.149 290.856 304.208 291.417 304.976 292.273C305.744 293.129 306.169 294.224 306.174 295.359L306.186 323.007Z" fill="#CB6CE6"/>
<path d="M286.05 302.833C277.864 302.833 271.228 300.968 271.228 298.67C271.228 296.373 277.864 294.507 286.05 294.507C294.237 294.507 300.885 296.373 300.885 298.67C300.885 300.968 294.285 302.833 286.05 302.833ZM309.625 316.407C309.498 317.305 309.16 318.164 308.636 318.916C308.113 319.668 307.419 320.294 306.607 320.744C305.72 321.247 304.74 321.576 303.722 321.712V325.829C303.719 328.407 302.661 330.879 300.782 332.702C298.902 334.525 296.354 335.551 293.696 335.554H277.96C275.302 335.551 272.754 334.525 270.874 332.702C268.995 330.879 267.937 328.407 267.934 325.829V298.251C267.937 296.999 268.408 295.79 269.259 294.849C270.11 293.908 271.283 293.298 272.562 293.131L273.837 292.968C282.246 291.885 290.769 291.928 299.166 293.096C300.431 293.28 301.586 293.898 302.422 294.837C303.258 295.776 303.719 296.975 303.722 298.216V301.399C306.174 304.268 310.502 311.252 309.625 316.407ZM302.82 321.841H302.315C297.158 321.841 291.304 318.156 287.806 315.555C283.676 312.445 279.932 308.88 276.65 304.932C276.613 304.888 276.585 304.837 276.568 304.782C276.551 304.727 276.546 304.67 276.552 304.613C276.558 304.556 276.576 304.501 276.604 304.451C276.632 304.4 276.67 304.356 276.716 304.32C276.762 304.284 276.814 304.257 276.871 304.241C276.927 304.225 276.986 304.219 277.045 304.225C277.104 304.231 277.16 304.248 277.212 304.276C277.264 304.303 277.31 304.34 277.347 304.384C280.582 308.288 284.278 311.81 288.359 314.879C291.869 317.503 297.843 321.258 302.784 320.978V301.702C302.712 301.621 302.672 301.518 302.672 301.411C302.672 301.303 302.712 301.2 302.784 301.119V298.227C302.79 297.208 302.422 296.221 301.746 295.441C301.07 294.661 300.13 294.14 299.094 293.971C290.781 292.803 282.342 292.76 274.017 293.843L272.743 294.006C271.68 294.142 270.705 294.647 269.997 295.427C269.29 296.208 268.898 297.211 268.896 298.251V325.829C268.902 328.174 269.865 330.422 271.575 332.08C273.285 333.739 275.602 334.673 278.02 334.679H293.756C296.175 334.676 298.494 333.743 300.204 332.084C301.915 330.424 302.877 328.175 302.88 325.829L302.82 321.841ZM303.722 302.857V320.873C304.569 320.741 305.383 320.46 306.126 320.045C306.822 319.655 307.417 319.116 307.865 318.47C308.313 317.823 308.602 317.085 308.711 316.313C309.42 312.209 306.415 306.297 303.722 302.81V302.857Z" fill="black"/>
<path d="M133.787 41.8743H86.6865C84.7735 41.8743 82.9389 41.1371 81.5862 39.825C80.2336 38.5129 79.4736 36.7333 79.4736 34.8777V6.99653C79.4736 5.14094 80.2336 3.36134 81.5862 2.04924C82.9389 0.737133 84.7735 0 86.6865 0L133.787 0C135.7 0 137.534 0.737133 138.887 2.04924C140.24 3.36134 140.999 5.14094 140.999 6.99653V34.8894C140.996 36.743 140.235 38.5196 138.883 39.8291C137.53 41.1387 135.697 41.8743 133.787 41.8743Z" fill="#CB6CE6"/>
<path d="M118.772 36.1488C120.131 38.3993 119.037 40.2417 116.368 40.2417H95.4144C92.7216 40.2417 91.6277 38.3993 93.0101 36.1488L103.445 18.8207C104.803 16.5585 107.051 16.5585 108.374 18.8207L118.772 36.1488Z" fill="#F4E3E0"/>
<path d="M116.368 40.8131H95.4145C94.7868 40.87 94.155 40.7614 93.5858 40.4986C93.0165 40.2359 92.5311 39.8289 92.1807 39.3205C91.8933 38.7673 91.7692 38.1477 91.8223 37.5303C91.8753 36.9129 92.1034 36.3217 92.4812 35.8223L102.916 18.4825C103.148 17.9021 103.556 17.4033 104.086 17.0516C104.616 16.7 105.243 16.5118 105.885 16.5118C106.527 16.5118 107.154 16.7 107.684 17.0516C108.214 17.4033 108.622 17.9021 108.854 18.4825L119.301 35.8223C119.676 36.3228 119.903 36.9137 119.956 37.5306C120.009 38.1475 119.886 38.7666 119.602 39.3205C119.253 39.8307 118.768 40.2392 118.198 40.5021C117.629 40.7651 116.996 40.8726 116.368 40.8131ZM105.885 17.6546C105.458 17.7026 105.052 17.8581 104.706 18.1056C104.36 18.3531 104.087 18.684 103.914 19.0656L93.5271 36.3936C93.2667 36.7207 93.1005 37.1089 93.0456 37.5187C92.9907 37.9285 93.049 38.3451 93.2146 38.7258C93.4694 39.0581 93.8108 39.3186 94.2038 39.4805C94.5968 39.6424 95.0271 39.6999 95.4505 39.647H116.368C116.791 39.6999 117.222 39.6424 117.615 39.4805C118.008 39.3186 118.349 39.0581 118.604 38.7258C118.769 38.3451 118.828 37.9285 118.773 37.5187C118.718 37.1089 118.552 36.7207 118.291 36.3936L107.857 19.0656C107.683 18.684 107.41 18.3531 107.065 18.1056C106.719 17.8581 106.312 17.7026 105.885 17.6546ZM124.146 49.3605C124.146 49.287 124.131 49.2143 124.102 49.1464C124.073 49.0784 124.03 49.0167 123.977 48.9648C123.923 48.9128 123.86 48.8716 123.79 48.8434C123.72 48.8153 123.645 48.8008 123.569 48.8008H83.1646C81.276 48.8008 79.4646 48.0739 78.1281 46.7796C76.7915 45.4853 76.0391 43.7295 76.0359 41.8976V15.4157C76.0391 13.5827 76.7911 11.8257 78.1274 10.5295C79.4636 9.23339 81.2749 8.50387 83.1646 8.50079H128.954C130.843 8.50388 132.653 9.23377 133.987 10.5302C135.322 11.8267 136.071 13.5838 136.071 15.4157V37.2099C136.074 37.3594 136.138 37.5018 136.248 37.6064C136.358 37.7111 136.506 37.7697 136.66 37.7696C136.813 37.7696 136.96 37.7107 137.068 37.6057C137.176 37.5007 137.237 37.3583 137.237 37.2099V15.4157C137.234 13.2847 136.361 11.2417 134.808 9.73382C133.256 8.2259 131.151 7.37585 128.954 7.36968H83.1646C80.9678 7.37585 78.8629 8.2259 77.3106 9.73382C75.7583 11.2417 74.885 13.2847 74.8818 15.4157V41.8976C74.885 44.0275 75.7587 46.0693 77.3113 47.5753C78.864 49.0814 80.9689 49.9288 83.1646 49.9319H123.581C123.657 49.9304 123.731 49.9144 123.801 49.8849C123.87 49.8554 123.933 49.8128 123.985 49.7598C124.038 49.7067 124.079 49.6441 124.106 49.5756C124.134 49.5071 124.147 49.4341 124.146 49.3605Z" fill="black"/>
<path d="M305.381 262.592H283.742C283.675 262.602 283.607 262.598 283.541 262.581C283.476 262.563 283.415 262.532 283.364 262.489C283.312 262.446 283.27 262.393 283.242 262.333C283.213 262.274 283.199 262.208 283.199 262.143C283.199 262.077 283.213 262.012 283.242 261.952C283.27 261.892 283.312 261.839 283.364 261.796C283.415 261.754 283.476 261.722 283.541 261.705C283.607 261.687 283.675 261.683 283.742 261.694H305.381C305.491 261.711 305.591 261.766 305.663 261.848C305.735 261.93 305.775 262.035 305.775 262.143C305.775 262.251 305.735 262.355 305.663 262.437C305.591 262.52 305.491 262.574 305.381 262.592Z" fill="black"/>
<path d="M324.543 226.011C324.545 220.659 323.024 215.409 320.148 210.841C317.271 206.273 313.151 202.564 308.24 200.122C303.33 197.68 297.82 196.599 292.317 197C286.814 197.401 281.532 199.267 277.053 202.393C272.573 205.519 269.07 209.784 266.929 214.717C264.788 219.65 264.092 225.061 264.918 230.354C265.744 235.646 268.06 240.615 271.61 244.713C275.16 248.81 279.808 251.878 285.041 253.578C285.041 253.648 285.041 253.706 285.041 253.776V256.423H283.766C283.699 256.412 283.631 256.416 283.565 256.434C283.5 256.452 283.439 256.483 283.388 256.526C283.336 256.568 283.294 256.621 283.266 256.681C283.237 256.741 283.223 256.806 283.223 256.872C283.223 256.938 283.237 257.003 283.266 257.063C283.294 257.122 283.336 257.175 283.388 257.218C283.439 257.261 283.5 257.292 283.565 257.31C283.631 257.328 283.699 257.331 283.766 257.321H285.041V261.694H283.766C283.699 261.683 283.631 261.687 283.565 261.705C283.5 261.722 283.439 261.754 283.388 261.796C283.336 261.839 283.294 261.892 283.266 261.952C283.237 262.012 283.223 262.077 283.223 262.143C283.223 262.208 283.237 262.274 283.266 262.333C283.294 262.393 283.336 262.446 283.388 262.489C283.439 262.532 283.5 262.563 283.565 262.581C283.631 262.598 283.699 262.602 283.766 262.592H285.041V263.035C285.047 265.03 285.868 266.941 287.323 268.35C288.778 269.76 290.75 270.553 292.806 270.556H296.293C298.348 270.553 300.319 269.759 301.772 268.35C303.225 266.94 304.043 265.029 304.047 263.035V262.592H305.393C305.503 262.574 305.603 262.52 305.675 262.437C305.747 262.355 305.787 262.251 305.787 262.143C305.787 262.035 305.747 261.93 305.675 261.848C305.603 261.766 305.503 261.711 305.393 261.694H304.047C304.047 260.528 304.047 258.918 303.938 257.321H305.393C305.503 257.304 305.603 257.249 305.675 257.167C305.747 257.084 305.787 256.98 305.787 256.872C305.787 256.764 305.747 256.659 305.675 256.577C305.603 256.495 305.503 256.44 305.393 256.423H303.902C303.902 255.35 303.77 254.394 303.674 253.729C309.744 251.87 315.043 248.178 318.797 243.192C322.551 238.205 324.564 232.186 324.543 226.011ZM303.109 263.035C303.106 264.79 302.385 266.473 301.105 267.715C299.826 268.956 298.091 269.655 296.281 269.658H292.794C290.982 269.658 289.244 268.961 287.962 267.719C286.679 266.477 285.957 264.792 285.954 263.035V262.592H303.109V263.035ZM303.109 261.694H285.954V257.321H303.109V261.694ZM303.109 253.881V256.423H285.954V253.869L286.82 254.079L287.866 254.347C288.214 254.429 288.575 254.487 288.924 254.546C289.272 254.604 289.705 254.697 290.126 254.755C290.546 254.814 290.679 254.825 290.943 254.849C292.14 254.995 293.344 255.073 294.55 255.082C295.139 255.082 295.752 255.082 296.281 255.024H296.725C297.17 255.024 297.615 254.942 298.048 254.895L298.986 254.79L300.079 254.592C300.464 254.522 300.849 254.464 301.221 254.382C301.594 254.301 301.859 254.219 302.183 254.137C302.508 254.056 302.808 253.974 303.109 253.881ZM285.654 252.831C279.061 250.778 273.441 246.508 269.808 240.791C266.174 235.073 264.766 228.285 265.837 221.649C266.909 215.013 270.388 208.967 275.65 204.601C280.911 200.234 287.607 197.834 294.532 197.834C301.456 197.834 308.152 200.234 313.413 204.601C318.675 208.967 322.155 215.013 323.226 221.649C324.297 228.285 322.889 235.073 319.255 240.791C315.622 246.508 310.002 250.778 303.409 252.831C297.634 254.615 291.429 254.615 285.654 252.831ZM316.909 232.798C316.909 232.68 316.861 232.568 316.776 232.485C316.69 232.402 316.574 232.355 316.453 232.355C312.99 232.355 309.408 232.238 306.463 231.061C307.155 229.839 307.542 228.477 307.593 227.084C307.593 226.524 307.533 223.726 306.126 222.711C305.864 222.532 305.561 222.416 305.243 222.373C304.925 222.331 304.602 222.363 304.299 222.466C303.841 222.64 303.425 222.902 303.076 223.237C302.727 223.572 302.451 223.972 302.267 224.414C301.816 225.295 301.629 226.28 301.726 227.259C301.91 228.169 302.314 229.023 302.905 229.751C303.497 230.479 304.259 231.06 305.128 231.445C304.064 233.165 302.568 234.595 300.778 235.6C298.989 236.606 296.966 237.154 294.898 237.194C291.163 237.243 287.48 236.347 284.211 234.594C285.131 232.822 285.604 230.864 285.594 228.88C285.602 227.577 285.411 226.28 285.029 225.032C284.752 224.076 284.343 222.7 283.285 222.152C283.038 222.022 282.761 221.954 282.48 221.954C282.199 221.954 281.922 222.022 281.675 222.152C280.088 222.98 279.378 225.988 279.27 226.746C278.966 228.961 279.575 231.203 280.965 232.985C281.535 233.685 282.203 234.305 282.949 234.827C282.66 235.259 282.313 235.652 281.915 235.993C280.244 237.416 277.708 237.486 275.904 237.404C275.842 237.397 275.779 237.404 275.719 237.422C275.66 237.441 275.605 237.472 275.558 237.513C275.512 237.553 275.475 237.603 275.449 237.659C275.424 237.714 275.411 237.775 275.411 237.836C275.411 237.953 275.457 238.067 275.539 238.154C275.622 238.24 275.735 238.293 275.856 238.302H276.77C278.815 238.456 280.85 237.893 282.504 236.716C282.958 236.334 283.362 235.9 283.706 235.422C287.127 237.253 290.98 238.19 294.886 238.139C297.131 238.099 299.329 237.506 301.273 236.414C303.216 235.323 304.841 233.769 305.994 231.9C309.108 233.171 312.846 233.288 316.441 233.299C316.504 233.297 316.567 233.281 316.624 233.254C316.682 233.227 316.733 233.189 316.775 233.142C316.816 233.095 316.847 233.04 316.867 232.981C316.886 232.922 316.892 232.86 316.885 232.798H316.909ZM283.466 234.092C282.809 233.635 282.222 233.089 281.723 232.471C280.483 230.883 279.943 228.883 280.22 226.909C280.376 225.743 281.146 223.504 282.528 222.875C282.662 222.878 282.793 222.91 282.913 222.968C283.586 223.271 283.935 224.472 284.223 225.487C284.543 226.591 284.701 227.733 284.692 228.88C284.698 230.685 284.279 232.468 283.466 234.092ZM305.297 230.501C304.62 230.181 304.031 229.711 303.576 229.13C303.121 228.549 302.812 227.872 302.676 227.154C302.596 226.352 302.75 225.544 303.121 224.822C303.29 224.435 303.552 224.093 303.884 223.824C304.217 223.554 304.61 223.365 305.032 223.271C305.235 223.269 305.433 223.33 305.597 223.446C306.355 223.994 306.703 225.72 306.691 227.084C306.653 228.355 306.14 229.569 305.249 230.501H305.297Z" fill="black"/>
<path d="M393.739 157.096C393.739 157.096 388.87 169.794 392.897 172.068C396.924 174.342 405.472 171.905 405.472 171.905C407.865 174.865 411.152 177.025 414.872 178.085C420.883 179.718 421.749 175.811 421.749 175.811C421.749 175.811 428.457 189.968 426.113 195.168C423.768 200.369 415.209 203.331 415.209 203.331C414.704 199.751 407.996 194.387 407.996 194.387L410.677 188.358L408.669 184.942L406.265 193.571L376.404 193.734L376.079 180.394C372.052 180.231 370.874 175.671 370.874 175.671C370.874 175.671 362.146 180.231 354.933 180.872C347.721 181.513 342.527 168.675 342.527 168.675C344.367 162.331 352.084 161.025 352.084 161.025L356.953 164.932C356.953 164.932 359.297 163.626 367.857 158.098C376.416 152.571 379.878 153.865 379.878 153.865L393.739 157.096Z" fill="#CB6CE6"/>
<path fill-rule="evenodd" clip-rule="evenodd" d="M397.67 222.513C397.67 222.513 392.308 259.385 393.426 262.638C394.544 265.892 403.488 282.38 407.732 287.371C411.975 292.362 416.688 302.775 416.688 302.775C407.732 302.775 401.481 312.757 401.481 312.757C401.481 312.757 393.871 300.606 388.726 295.405C383.581 290.205 375.081 276.958 371.728 268.282C368.374 259.606 369.936 225.545 370.609 214.7C371.282 207.424 373.268 200.32 376.476 193.711L406.337 193.547C412.096 195.611 415.233 203.308 415.233 203.308" fill="#F4E3E0"/>
<path d="M401.445 313.2C401.366 313.199 401.289 313.178 401.222 313.139C401.154 313.1 401.098 313.045 401.06 312.978C400.988 312.862 393.426 300.816 388.377 295.708C382.944 290.205 374.481 276.701 371.283 268.434C367.532 258.755 369.864 219.155 370.141 214.677C370.802 203.856 376.031 193.571 376.031 193.571C376.066 193.497 376.122 193.435 376.192 193.391C376.263 193.348 376.345 193.325 376.428 193.326L406.289 193.163C406.34 193.147 406.395 193.147 406.446 193.163C412.324 195.262 415.474 202.853 415.606 203.168C415.649 203.277 415.645 203.399 415.596 203.506C415.546 203.614 415.455 203.697 415.342 203.739C415.287 203.76 415.229 203.77 415.17 203.769C415.112 203.768 415.054 203.755 415.001 203.733C414.947 203.71 414.899 203.677 414.858 203.636C414.818 203.595 414.786 203.547 414.764 203.494C414.764 203.413 411.663 196.02 406.217 194.002L376.717 194.165C373.608 200.657 371.676 207.619 371.006 214.747C370.009 230.944 369.119 260.423 372.1 268.154C375.575 277.133 384.182 290.251 389.003 295.125C393.474 299.65 399.822 309.457 401.433 311.964C402.923 309.83 408.381 302.787 415.943 302.379C414.885 300.046 410.918 291.884 407.335 287.674C402.983 282.555 394.003 265.892 392.909 262.801C391.767 259.49 396.925 223.982 397.141 222.466C397.148 222.41 397.167 222.355 397.197 222.305C397.226 222.255 397.266 222.212 397.313 222.177C397.36 222.142 397.413 222.117 397.471 222.103C397.528 222.088 397.587 222.085 397.646 222.093C397.765 222.111 397.873 222.173 397.945 222.267C398.017 222.361 398.048 222.479 398.031 222.595C396.54 232.821 392.873 259.91 393.763 262.522C394.809 265.577 403.693 282.054 407.996 287.114C412.3 292.175 416.82 302.204 417.012 302.623C417.048 302.688 417.067 302.76 417.067 302.833C417.067 302.907 417.048 302.979 417.012 303.043C416.971 303.102 416.915 303.151 416.851 303.186C416.786 303.22 416.714 303.239 416.64 303.241C408.044 303.241 401.877 312.908 401.817 313.013C401.774 313.07 401.718 313.117 401.654 313.149C401.589 313.182 401.518 313.199 401.445 313.2Z" fill="black"/>
<path fill-rule="evenodd" clip-rule="evenodd" d="M424.261 316.442C423.817 320.348 417.782 334.236 417.782 334.236L395.638 334.458C395.716 334.017 395.845 333.587 396.023 333.175L372.593 333.373C373.723 329.245 377.077 326.645 380.203 325.129C382.26 323.972 383.901 322.23 384.903 320.138L402.791 320.348L401.144 327.088C401.974 326.4 402.575 325.992 402.575 325.992C402.575 325.992 404.582 320.779 404.582 318.832C404.582 316.885 401.445 312.757 401.445 312.757C409.944 302.565 416.664 302.775 416.664 302.775C416.664 302.775 424.706 312.512 424.261 316.442Z" fill="black"/>
<path d="M400.771 40.5916V20.6981C400.778 18.3516 401.741 16.1027 403.45 14.4424C405.16 12.7821 407.477 11.845 409.896 11.8358H476.591C479.012 11.842 481.332 12.7776 483.044 14.4383C484.756 16.099 485.721 18.3495 485.727 20.6981V56.7069C485.721 59.0554 484.756 61.306 483.044 62.9667C481.332 64.6273 479.012 65.563 476.591 65.5692H409.896C407.477 65.56 405.16 64.6229 403.45 62.9626C401.741 61.3022 400.778 59.0534 400.771 56.7069V40.5916Z" fill="#CB6CE6"/>
<path d="M421.34 40.4166C421.34 41.6528 420.962 42.8612 420.254 43.8891C419.546 44.9169 418.54 45.718 417.362 46.1911C416.185 46.6642 414.889 46.7879 413.64 46.5468C412.39 46.3056 411.242 45.7103 410.34 44.8362C409.439 43.9621 408.826 42.8484 408.577 41.636C408.328 40.4236 408.456 39.1669 408.944 38.0248C409.431 36.8827 410.257 35.9065 411.317 35.2198C412.376 34.533 413.622 34.1664 414.897 34.1664C416.606 34.1664 418.244 34.8249 419.453 35.9971C420.661 37.1692 421.34 38.759 421.34 40.4166Z" fill="#F4E3E0"/>
<path d="M471.229 72.8456H404.534C401.984 72.8456 399.537 71.8627 397.734 70.1133C395.93 68.3638 394.917 65.991 394.917 63.5169V27.5314C394.917 25.0572 395.93 22.6844 397.734 20.935C399.537 19.1855 401.984 18.2026 404.534 18.2026H471.229C473.78 18.2026 476.226 19.1855 478.03 20.935C479.833 22.6844 480.846 25.0572 480.846 27.5314V63.5402C480.84 66.0103 479.824 68.3771 478.021 70.1215C476.218 71.8659 473.776 72.8456 471.229 72.8456ZM404.534 19.1122C402.232 19.1153 400.025 20.0029 398.396 21.5808C396.767 23.1587 395.849 25.2983 395.843 27.5314V63.5402C395.846 65.7752 396.763 67.9179 398.392 69.4983C400.021 71.0787 402.23 71.9679 404.534 71.971H471.229C473.532 71.9679 475.74 71.0783 477.367 69.4976C478.995 67.9168 479.909 65.7742 479.909 63.5402V27.5314C479.906 25.2994 478.99 23.1598 477.363 21.5815C475.736 20.0033 473.53 19.1153 471.229 19.1122H404.534ZM412.589 45.3259C411.238 45.3259 409.918 44.9374 408.795 44.2096C407.672 43.4818 406.797 42.4474 406.28 41.2372C405.763 40.0269 405.628 38.6951 405.892 37.4103C406.155 36.1255 406.805 34.9453 407.76 34.0191C408.715 33.0928 409.932 32.4619 411.256 32.2064C412.581 31.9508 413.954 32.082 415.202 32.5833C416.449 33.0846 417.516 33.9335 418.266 35.0227C419.016 36.1119 419.417 37.3925 419.417 38.7025C419.414 40.4582 418.693 42.1411 417.413 43.3825C416.133 44.624 414.399 45.3228 412.589 45.3259ZM412.589 32.8254C411.4 32.8254 410.238 33.1674 409.249 33.808C408.261 34.4487 407.49 35.3593 407.035 36.4246C406.58 37.49 406.461 38.6623 406.693 39.7933C406.925 40.9243 407.498 41.9632 408.338 42.7786C409.179 43.594 410.25 44.1493 411.416 44.3743C412.582 44.5992 413.79 44.4838 414.889 44.0425C415.987 43.6012 416.926 42.8539 417.586 41.8951C418.247 40.9363 418.599 39.809 418.599 38.6558C418.599 37.1095 417.966 35.6265 416.839 34.5331C415.712 33.4397 414.183 32.8254 412.589 32.8254ZM468.512 35.7989C468.512 35.6834 468.466 35.5724 468.383 35.4897C468.3 35.4069 468.187 35.3589 468.068 35.3558H431.835C431.77 35.3454 431.703 35.349 431.639 35.3661C431.575 35.3833 431.516 35.4138 431.465 35.4554C431.415 35.497 431.374 35.5487 431.346 35.607C431.319 35.6654 431.304 35.7288 431.304 35.7931C431.304 35.8574 431.319 35.9208 431.346 35.9791C431.374 36.0375 431.415 36.0892 431.465 36.1308C431.516 36.1724 431.575 36.2029 431.639 36.2201C431.703 36.2372 431.77 36.2408 431.835 36.2304H468.068C468.185 36.2274 468.296 36.181 468.379 36.1007C468.461 36.0205 468.509 35.9124 468.512 35.7989ZM468.512 41.6294C468.512 41.5149 468.465 41.4052 468.382 41.3243C468.299 41.2434 468.186 41.1979 468.068 41.1979H431.835C431.776 41.1964 431.716 41.2064 431.661 41.2274C431.606 41.2483 431.555 41.2799 431.513 41.3201C431.47 41.3603 431.436 41.4084 431.413 41.4615C431.39 41.5146 431.378 41.5717 431.378 41.6294C431.378 41.6876 431.39 41.7452 431.413 41.7989C431.436 41.8527 431.469 41.9016 431.512 41.9427C431.554 41.9839 431.605 42.0165 431.66 42.0388C431.715 42.061 431.775 42.0725 431.835 42.0725H468.068C468.187 42.0695 468.3 42.0214 468.383 41.9387C468.466 41.8559 468.512 41.7449 468.512 41.6294ZM470.424 53.8267C470.424 53.7122 470.377 53.6025 470.293 53.5216C470.21 53.4407 470.097 53.3952 469.979 53.3952H409.691C409.626 53.3848 409.559 53.3883 409.495 53.4055C409.431 53.4227 409.372 53.4532 409.322 53.4948C409.271 53.5364 409.231 53.5881 409.203 53.6464C409.175 53.7048 409.161 53.7682 409.161 53.8325C409.161 53.8967 409.175 53.9602 409.203 54.0185C409.231 54.0769 409.271 54.1286 409.322 54.1702C409.372 54.2118 409.431 54.2423 409.495 54.2594C409.559 54.2766 409.626 54.2802 409.691 54.2698H469.979C470.038 54.2698 470.097 54.2583 470.152 54.2359C470.207 54.2134 470.256 54.1806 470.298 54.1393C470.339 54.098 470.372 54.0491 470.393 53.9954C470.415 53.9417 470.425 53.8843 470.424 53.8267Z" fill="black"/>
<path d="M156.892 224.087C155.627 222.768 154.643 221.22 153.998 219.531C153.352 217.842 153.057 216.046 153.129 214.245C153.911 203.413 169.466 205.803 172.496 211.26C175.85 217.312 176.198 225.358 169.13 228.88C167.855 229.521 162.277 232.378 161.652 229.638C161.652 229.754 165.103 243.573 165.103 243.573H152.576L156.892 224.087Z" fill="#FF66C4"/>
<path fill-rule="evenodd" clip-rule="evenodd" d="M172.352 209.896C172.652 210.444 171.823 211.354 171.643 211.622L170.825 212.706C170.332 213.324 169.815 213.931 169.31 214.549C167.669 216.698 166.155 218.936 164.778 221.254C163.985 222.525 163.155 223.761 162.374 225.009C162.254 225.207 162.122 225.405 161.989 225.603L161.881 225.895C161.484 226.874 161.112 227.912 160.679 228.857C160.679 228.693 160.619 228.518 160.595 228.355C160.571 228.192 160.595 227.97 160.535 227.772C160.472 226.517 160.623 225.26 160.979 224.052C161.508 222.14 162.182 220.274 162.735 218.362C163.107 217.032 163.444 215.691 163.841 214.362C164.237 213.033 164.646 211.773 165.127 210.502C165.367 209.849 165.632 209.196 165.932 208.567C166.065 208.275 166.209 207.995 166.365 207.715C166.371 207.689 166.371 207.661 166.365 207.634C166.461 207.237 167.567 206.783 167.952 206.654L168.541 207.027C168.842 207.156 169.443 207.506 169.743 207.669C170.696 208.314 171.571 209.061 172.352 209.896Z" fill="black"/>
<path d="M216.254 296.058C220.558 293.563 227.771 296.781 227.771 300.35C227.771 311.066 217.673 361.523 217.144 364.718C216.615 367.913 210.977 368.752 210.64 364.718C210.123 358.316 209.15 336.16 210.123 325.899C210.52 321.666 210.953 317.643 211.325 314.039C206.028 323.298 197.841 336.557 186.766 353.815L180.755 351.156C185.475 336.082 189.346 325.44 192.368 319.229C197.549 308.594 202.394 299.487 204.389 296.28C207.731 291.254 213.297 293.015 216.254 296.058Z" fill="#FF66C4"/>
<path fill-rule="evenodd" clip-rule="evenodd" d="M194.567 347.494C195.709 344.474 215.172 311.614 219.007 301.469C220.69 297.003 206.829 287.732 201.876 295.429L181.283 342.83L194.567 347.494Z" fill="#F4E3E0"/>
<path d="M194.567 347.914C194.516 347.925 194.462 347.925 194.411 347.914L181.091 343.25C181.032 343.232 180.978 343.201 180.933 343.161C180.887 343.121 180.851 343.072 180.827 343.017C180.803 342.961 180.791 342.902 180.791 342.842C180.791 342.782 180.803 342.722 180.827 342.667L201.467 295.3C204.112 291.161 209.101 291.616 212.876 293.411C216.651 295.207 220.449 298.962 219.427 301.656C216.939 308.256 208.031 324.114 201.528 335.694C198.089 341.816 195.385 346.643 194.988 347.681C194.948 347.755 194.888 347.817 194.813 347.858C194.738 347.9 194.653 347.919 194.567 347.914ZM181.836 342.539L194.315 346.923C195.048 345.349 197.488 341.011 200.734 335.262C207.226 323.671 216.146 307.847 218.55 301.306C219.283 299.37 216.434 296.035 212.455 294.146C210.796 293.353 205.134 291.137 202.237 295.65L181.836 342.539Z" fill="black"/>
<path fill-rule="evenodd" clip-rule="evenodd" d="M180.154 348.136C180.379 347.98 180.658 347.918 180.93 347.962C181.203 348.005 181.447 348.152 181.608 348.369C182.213 349.289 183.002 350.082 183.928 350.701C185.098 351.259 186.377 351.569 187.679 351.611L189.506 350.246C189.62 350.168 189.76 350.137 189.898 350.159C190.035 350.181 190.158 350.254 190.24 350.363L199.039 362.117C199.905 362.782 200.999 363.598 202.333 364.566C203.668 365.534 203.355 366.898 201.432 368.647L175.934 354.374C176.381 353.105 176.932 351.873 177.581 350.69C178.276 349.73 179.124 348.883 180.093 348.182L180.154 348.136Z" fill="#F4E3E0"/>
<path d="M201.444 369.079C201.363 369.083 201.283 369.063 201.215 369.02L175.706 354.759C175.612 354.708 175.541 354.625 175.506 354.526C175.47 354.427 175.473 354.32 175.513 354.223C175.966 352.928 176.529 351.672 177.196 350.468C177.912 349.461 178.793 348.574 179.805 347.844L179.889 347.774C180.215 347.556 180.616 347.468 181.007 347.529C181.4 347.596 181.75 347.809 181.981 348.124C182.55 348.989 183.285 349.741 184.145 350.34C185.211 350.832 186.367 351.113 187.547 351.168L189.23 349.908C189.334 349.833 189.452 349.778 189.578 349.747C189.704 349.717 189.835 349.71 189.963 349.729C190.092 349.747 190.215 349.79 190.327 349.855C190.438 349.92 190.535 350.005 190.612 350.107L199.388 361.767C200.241 362.42 201.311 363.225 202.61 364.17C202.891 364.349 203.126 364.588 203.297 364.869C203.468 365.15 203.57 365.465 203.595 365.79C203.656 366.712 203.042 367.738 201.744 368.916C201.709 368.962 201.664 369 201.612 369.028C201.56 369.057 201.503 369.074 201.444 369.079ZM176.475 354.188L201.359 368.099C202.082 367.557 202.556 366.761 202.682 365.884C202.664 365.686 202.597 365.495 202.489 365.327C202.38 365.159 202.232 365.018 202.057 364.916C200.722 363.936 199.652 363.12 198.763 362.455C198.729 362.434 198.7 362.407 198.679 362.374L189.879 350.62L187.943 351.972C187.854 352.038 187.743 352.071 187.631 352.066C186.261 352.018 184.917 351.688 183.688 351.098C182.723 350.44 181.905 349.599 181.284 348.626C181.239 348.564 181.182 348.511 181.116 348.471C181.05 348.431 180.976 348.404 180.899 348.392C180.744 348.37 180.586 348.404 180.454 348.486C179.524 349.16 178.713 349.975 178.05 350.899C177.438 351.955 176.912 353.054 176.475 354.188Z" fill="black"/>
<path fill-rule="evenodd" clip-rule="evenodd" d="M209.353 362.094C209.409 361.972 209.49 361.862 209.59 361.771C209.69 361.68 209.807 361.608 209.936 361.562C210.065 361.515 210.202 361.494 210.339 361.499C210.477 361.504 210.611 361.536 210.736 361.593C211.733 362.099 212.824 362.409 213.946 362.502C215.25 362.416 216.52 362.062 217.672 361.464L218.55 359.4C218.608 359.277 218.713 359.181 218.844 359.133C218.975 359.084 219.12 359.088 219.247 359.144L232.976 365.044C234.058 365.207 235.38 365.382 237.075 365.569C238.77 365.755 239.167 367.096 238.409 369.545H208.933C208.668 368.226 208.511 366.889 208.464 365.546C208.564 364.381 208.856 363.239 209.329 362.164L209.353 362.094Z" fill="#F4E3E0"/>
<path d="M238.374 369.977H208.933C208.827 369.976 208.725 369.939 208.644 369.873C208.563 369.807 208.508 369.716 208.488 369.615C208.213 368.274 208.052 366.913 208.007 365.546C208.113 364.34 208.418 363.159 208.909 362.047V361.954C208.991 361.781 209.107 361.624 209.251 361.495C209.395 361.365 209.564 361.264 209.748 361.198C209.933 361.132 210.129 361.102 210.325 361.11C210.521 361.117 210.714 361.162 210.892 361.243C211.828 361.727 212.854 362.024 213.91 362.117C215.089 362.031 216.238 361.714 217.288 361.184L218.093 359.284C218.144 359.168 218.219 359.063 218.312 358.975C218.404 358.887 218.514 358.818 218.635 358.771C218.756 358.725 218.885 358.702 219.014 358.704C219.144 358.705 219.272 358.732 219.392 358.782L233.024 364.671C234.106 364.823 235.428 364.998 237.063 365.184C237.4 365.205 237.727 365.3 238.021 365.462C238.315 365.623 238.567 365.847 238.758 366.117C239.275 366.887 239.275 368.064 238.758 369.72C238.724 369.793 238.67 369.855 238.602 369.9C238.535 369.945 238.456 369.971 238.374 369.977ZM209.294 369.102H238.025C238.368 368.283 238.368 367.367 238.025 366.548C237.904 366.388 237.747 366.256 237.566 366.163C237.385 366.07 237.184 366.018 236.979 366.012C235.32 365.814 233.95 365.639 232.856 365.476C232.816 365.486 232.775 365.486 232.735 365.476L219.055 359.564L218.947 359.622L218.069 361.674C218.027 361.771 217.95 361.85 217.853 361.896C216.639 362.519 215.304 362.888 213.934 362.98C212.745 362.888 211.587 362.563 210.532 362.024C210.39 361.964 210.229 361.959 210.083 362.011C209.937 362.063 209.818 362.168 209.75 362.304C209.292 363.338 209.004 364.436 208.897 365.557C208.935 366.747 209.068 367.932 209.294 369.102Z" fill="black"/>
<path fill-rule="evenodd" clip-rule="evenodd" d="M222.529 294.869C210.303 292.653 177.365 286.217 171.053 285.54H140.038C140.567 303.253 147.047 312.827 162.699 312.827C173.518 312.827 209.751 308.862 210.652 309.328C211.253 309.632 210.52 323.772 208.452 351.751H222.625C222.625 348.789 229.213 317.433 229.213 303.999C229.213 300.291 227.771 295.813 222.529 294.869Z" fill="#F4E3E0"/>
<path d="M208.452 352.159C208.389 352.161 208.326 352.149 208.268 352.125C208.21 352.101 208.158 352.065 208.115 352.019C208.073 351.976 208.041 351.924 208.02 351.868C207.999 351.812 207.991 351.752 207.995 351.692C210.4 319.683 210.592 311.043 210.327 309.713C209.233 309.713 202.321 310.285 195.036 310.938C183.411 311.975 168.95 313.27 162.698 313.27C147.491 313.27 140.146 304.466 139.593 285.564C139.591 285.505 139.601 285.446 139.624 285.392C139.647 285.338 139.681 285.289 139.725 285.249C139.765 285.206 139.813 285.172 139.867 285.148C139.921 285.124 139.979 285.111 140.038 285.109H171.053C175.573 285.575 193.329 288.934 207.587 291.616C213.597 292.782 219.007 293.773 222.613 294.426C228.973 295.592 229.67 301.492 229.67 303.988C229.67 313.176 226.641 330.423 224.645 341.827C223.767 346.853 223.07 350.83 223.07 351.739C223.067 351.853 223.019 351.961 222.937 352.041C222.854 352.121 222.742 352.168 222.625 352.171L208.452 352.159ZM210.135 308.874C210.383 308.854 210.632 308.882 210.868 308.955C211.397 309.212 212.071 309.538 208.945 351.319H222.169C222.301 349.897 222.914 346.375 223.731 341.711C225.727 330.33 228.744 313.13 228.744 304.011C228.744 301.737 228.119 296.338 222.421 295.312C218.815 294.659 213.393 293.633 207.394 292.502C193.149 289.808 175.417 286.473 170.981 286.007H140.507C141.156 304.023 148.213 312.419 162.698 312.419C168.913 312.419 183.351 311.124 194.952 310.086C204.978 309.188 208.729 308.874 210.135 308.874Z" fill="black"/>
<path d="M192.307 287.453L207.731 296.245C211.586 302.13 213.854 304.672 214.535 303.871C215.545 302.705 213.934 301.271 214.475 300.373C215.016 299.475 218.081 299.988 221.015 300.606C223.948 301.224 223.251 299.836 222.637 299.113C219.404 296.692 215.845 294.711 212.059 293.225L197.26 279.232L192.307 287.453ZM115.707 308.279C114.961 309.748 109.419 314.214 105.585 316.768C105.326 316.879 105.102 317.053 104.935 317.273C104.767 317.494 104.662 317.753 104.629 318.025C104.596 318.297 104.637 318.573 104.748 318.825C104.859 319.077 105.035 319.296 105.26 319.462C109.996 322.284 113.122 318.937 117.221 317.13C121.705 315.101 121.333 320.814 124.891 319.275C123.797 316.943 121.285 312.477 122.487 309.585C123.032 308.294 127.656 293.979 136.359 266.638H124.915C119.794 292.393 116.724 306.273 115.707 308.279Z" fill="#FF66C4"/>
<path fill-rule="evenodd" clip-rule="evenodd" d="M209.763 290.508L203.896 294.671C202.91 293.505 200.783 295.604 196.359 294.158C194.399 293.528 187.054 287.581 179.444 278.672C181.849 283.336 183.267 287.254 181.753 291.79C178.218 302.483 144.342 313.946 138.475 303.451C136.067 298.821 134.831 293.7 134.869 288.514C133.37 292.797 132.168 296.486 131.262 299.58C129.76 304.909 123.929 305.76 123.929 307.812L116.368 305.795C116.897 302.997 113.266 301.644 114.24 295.405C118.159 270.124 128.085 251.144 144.017 238.465C144.306 237.451 144.606 236.541 144.75 236.028C145.063 234.92 145.568 233.929 145.953 232.868C146.221 232.155 146.43 231.422 146.578 230.676C146.692 230.243 146.692 229.79 146.578 229.358C146.458 228.973 146.229 228.588 146.097 228.192C145.914 227.561 145.777 226.918 145.688 226.268C145.58 225.685 145.388 225.102 145.291 224.53C144.861 221.836 145.012 219.084 145.736 216.449C146.391 213.862 147.822 211.52 149.848 209.721C152.269 207.874 155.094 206.589 158.106 205.966C162.278 205.127 167.062 205.465 168.325 206.374C168.589 206.573 168.721 207.144 168.445 207.051C167.002 206.573 165.079 212.24 164.706 213.359C163.865 215.878 163.264 218.467 162.458 220.997C161.773 223.119 160.835 225.3 161.028 227.574C161.028 228.122 161.965 228.32 162.638 228.95C163.158 229.514 163.565 230.166 163.841 230.874L165.644 230.991C165.934 230.994 166.219 231.056 166.483 231.172C166.747 231.288 166.983 231.457 167.176 231.666C167.369 231.875 167.516 232.121 167.606 232.389C167.696 232.656 167.728 232.938 167.699 233.218L167.327 238.43C167.327 239.596 167.327 240.669 167.327 241.754C178.579 262.102 208.128 276.363 210.135 284.526C210.965 287.802 208.488 289.493 209.763 290.508Z" fill="#CB6CE6"/>
<path d="M493 114.16V126.754C492.994 128.985 492.077 131.123 490.451 132.7C488.825 134.278 486.621 135.167 484.321 135.173H438.194L427.724 145.295V114.16C427.73 111.929 428.646 109.791 430.273 108.214C431.899 106.636 434.103 105.747 436.403 105.741H484.285C486.591 105.738 488.804 106.623 490.438 108.201C492.072 109.78 492.994 111.923 493 114.16Z" fill="#CB6CE6"/>
<path d="M424.261 142.496C423.889 142.135 423.889 111.012 423.889 111.012C423.892 108.684 424.847 106.452 426.543 104.806C428.24 103.16 430.541 102.234 432.941 102.231H480.822C483.222 102.234 485.523 103.16 487.22 104.806C488.917 106.452 489.871 108.684 489.874 111.012V123.605C489.871 125.933 488.917 128.165 487.22 129.811C485.523 131.457 483.222 132.383 480.822 132.386H434.852L424.526 142.403C424.454 142.466 424.359 142.5 424.261 142.496ZM432.941 102.942C430.739 102.945 428.628 103.795 427.071 105.306C425.513 106.816 424.637 108.864 424.634 111V141.318L434.431 131.815C434.696 131.71 480.822 131.71 480.822 131.71C483.024 131.707 485.135 130.857 486.693 129.346C488.25 127.836 489.126 125.788 489.129 123.652V111C489.126 108.864 488.25 106.816 486.693 105.306C485.135 103.795 483.024 102.945 480.822 102.942H432.941Z" fill="black"/>
<path d="M442.269 116.959C442.272 117.792 442.019 118.607 441.544 119.301C441.068 119.994 440.391 120.536 439.599 120.856C438.806 121.177 437.933 121.262 437.09 121.1C436.248 120.939 435.473 120.539 434.865 119.951C434.257 119.363 433.843 118.613 433.674 117.796C433.506 116.979 433.591 116.132 433.919 115.362C434.247 114.592 434.803 113.934 435.517 113.471C436.231 113.008 437.071 112.761 437.93 112.761C439.078 112.761 440.18 113.203 440.994 113.99C441.808 114.777 442.266 115.844 442.269 116.959ZM456.887 112.761C456.031 112.761 455.195 113.007 454.483 113.468C453.771 113.93 453.217 114.585 452.889 115.352C452.562 116.119 452.476 116.963 452.643 117.778C452.81 118.592 453.222 119.34 453.827 119.927C454.433 120.514 455.204 120.914 456.043 121.076C456.883 121.238 457.753 121.155 458.544 120.837C459.334 120.519 460.01 119.981 460.486 119.291C460.961 118.601 461.215 117.789 461.215 116.959C461.212 115.846 460.755 114.78 459.944 113.994C459.133 113.207 458.034 112.764 456.887 112.761ZM476.591 112.761C475.735 112.761 474.898 113.007 474.186 113.468C473.475 113.93 472.92 114.585 472.592 115.352C472.265 116.119 472.179 116.963 472.346 117.778C472.513 118.592 472.925 119.34 473.53 119.927C474.136 120.514 474.907 120.914 475.746 121.076C476.586 121.238 477.456 121.155 478.247 120.837C479.038 120.519 479.713 119.981 480.189 119.291C480.664 118.601 480.918 117.789 480.918 116.959C480.915 115.846 480.458 114.78 479.647 113.994C478.836 113.207 477.737 112.764 476.591 112.761Z" fill="#F4E3E0"/>
<path fill-rule="evenodd" clip-rule="evenodd" d="M17.6836 315.334L16.8421 317.771C16.8421 317.771 29.08 321.024 27.2407 324.114C25.4014 327.205 2.75297 324.441 1.57487 323.147C0.396762 321.852 4.92885 312.244 4.92885 312.244C9.0478 313.733 13.3262 314.77 17.6836 315.334ZM47.7373 318.097L47.6171 324.534C47.6053 325.219 47.8618 325.883 48.3348 326.391C48.8078 326.9 49.4621 327.216 50.1656 327.275C56.6211 327.799 73.0064 328.744 74.9178 325.094C75.591 322.33 61.1652 320.208 61.1652 320.208L60.8286 316.465C60.8286 316.465 58.0998 318.424 47.7012 318.097H47.7373Z" fill="#F4E3E0"/>
<path d="M20.0998 325.957C12.887 325.957 2.22394 324.523 1.23818 323.426C-0.0360985 322.027 3.42608 314.366 4.52003 312.057C4.56988 311.954 4.65897 311.873 4.76871 311.832C4.87845 311.79 5.00038 311.792 5.10909 311.836C9.20581 313.312 13.4597 314.341 17.7917 314.902C17.8569 314.907 17.9198 314.928 17.9745 314.962C18.0292 314.997 18.0738 315.044 18.1043 315.101C18.1339 315.159 18.1494 315.222 18.1494 315.287C18.1494 315.352 18.1339 315.416 18.1043 315.474L17.4191 317.479C19.4747 318.051 26.6636 320.231 27.7335 322.773C27.8477 323.023 27.8975 323.295 27.8787 323.568C27.8598 323.84 27.7728 324.104 27.6253 324.336C27.1685 325.117 25.798 325.607 23.4298 325.829C22.4681 325.922 21.326 325.957 20.0998 325.957ZM5.15717 312.803C3.1015 317.234 1.34637 322.225 1.91138 322.855C2.82501 323.671 17.395 325.852 24.2833 324.849C26.1947 324.569 26.6876 324.138 26.8559 323.893C26.9212 323.772 26.9553 323.638 26.9553 323.502C26.9553 323.366 26.9212 323.232 26.8559 323.112C25.9904 321.071 19.2103 318.867 16.6737 318.191C16.6148 318.177 16.5596 318.151 16.5118 318.115C16.4641 318.079 16.425 318.033 16.3972 317.981C16.3734 317.925 16.3612 317.866 16.3612 317.806C16.3612 317.746 16.3734 317.686 16.3972 317.631L17.0704 315.695C13.0042 315.147 9.01031 314.178 5.15717 312.803ZM61.4897 328.231C57.4986 328.231 53.3512 327.974 50.0934 327.718C49.2762 327.65 48.5161 327.283 47.967 326.692C47.4179 326.101 47.1209 325.33 47.1361 324.534L47.2563 318.086C47.2562 318.029 47.2678 317.973 47.2905 317.921C47.3132 317.869 47.3466 317.822 47.3886 317.783C47.4775 317.705 47.5936 317.663 47.7131 317.666C57.751 317.981 60.4919 316.138 60.528 316.115C60.5947 316.075 60.6718 316.053 60.7504 316.053C60.829 316.053 60.9061 316.075 60.9728 316.115C61.0455 316.144 61.1086 316.193 61.1552 316.254C61.2018 316.316 61.2302 316.389 61.2373 316.465L61.5378 319.87C63.7858 320.208 73.4631 321.817 75.086 324.149C75.2029 324.303 75.2838 324.48 75.3233 324.667C75.3627 324.854 75.3597 325.048 75.3144 325.234C74.1123 327.566 68.0054 328.231 61.4897 328.231ZM48.1459 318.552L48.0377 324.546C48.017 325.125 48.2261 325.69 48.622 326.124C49.0179 326.558 49.5704 326.828 50.1655 326.878C63.9782 327.986 73.2828 327.24 74.4729 324.931C74.445 324.825 74.396 324.726 74.3286 324.639C73.0544 322.797 64.3148 321.141 61.105 320.674C61.0056 320.662 60.9135 320.617 60.8436 320.547C60.7738 320.477 60.7303 320.386 60.7203 320.29L60.3958 317.176C59.0975 317.724 55.6834 318.739 48.1459 318.552Z" fill="black"/>
</g>
<defs>
<clipPath id="clip0_54795_27369">
<rect width="493" height="370" fill="white"/>
</clipPath>
</defs>
</svg>
