<svg width="478" height="377" viewBox="0 0 478 377" fill="none" xmlns="http://www.w3.org/2000/svg">
<path d="M84.4218 249.155C84.4218 249.155 90.5748 280.484 90.119 289.347C89.6633 298.21 82.3024 308.978 23.1648 327.092L17.6499 303.827L75.7619 274.557L84.4218 249.155Z" fill="#F4E3E0"/>
<path d="M23.165 327.501C23.0886 327.506 23.0129 327.486 22.9485 327.446C22.8966 327.419 22.8515 327.381 22.8161 327.335C22.7807 327.289 22.7559 327.236 22.7434 327.18L17.2284 303.915C17.2059 303.824 17.2163 303.728 17.2578 303.644C17.2992 303.559 17.3693 303.491 17.4563 303.45L75.386 274.258L84.0231 249.066C84.0493 248.976 84.1069 248.898 84.186 248.846C84.2651 248.793 84.3607 248.769 84.4561 248.778C84.5504 248.786 84.6393 248.824 84.7093 248.886C84.7793 248.948 84.8264 249.031 84.8435 249.121C85.0942 250.406 90.9965 280.595 90.5407 289.414C90.0394 300.049 78.3942 310.596 23.3131 327.513L23.165 327.501ZM18.14 304.015L23.4726 326.549C80.958 308.879 89.2987 298.232 89.7203 289.347C90.085 281.781 85.5386 257.319 84.3079 250.839L76.1381 274.635C76.1227 274.687 76.0966 274.736 76.0613 274.777C76.0261 274.819 75.9824 274.854 75.933 274.879L18.14 304.015Z" fill="black"/>
<path d="M124.77 172.181C124.873 165.091 125.647 145.161 130.957 140.143C131.157 139.955 131.394 139.808 131.654 139.712C131.914 139.616 132.191 139.571 132.469 139.582C132.746 139.592 133.019 139.657 133.27 139.772C133.522 139.888 133.747 140.051 133.931 140.253C136.21 142.724 140.449 150.39 138.637 172.503C138.568 173.166 138.28 173.79 137.815 174.281C137.351 174.773 136.736 175.105 136.062 175.228C133.278 175.725 130.425 175.725 127.641 175.228C126.866 175.14 126.149 174.784 125.622 174.225C125.095 173.665 124.792 172.94 124.77 172.181Z" fill="#CB6CE6"/>
<path d="M328.025 335.123H163.283L214.559 85.3152H379.335L328.025 335.123Z" fill="#F4E3E0"/>
<path d="M328.025 335.567H163.283C163.22 335.567 163.157 335.553 163.1 335.526C163.043 335.499 162.993 335.46 162.953 335.411C162.911 335.365 162.881 335.31 162.865 335.25C162.849 335.191 162.848 335.128 162.862 335.068L214.217 85.1934C214.233 85.0995 214.284 85.0144 214.359 84.9534C214.434 84.8924 214.529 84.8597 214.627 84.861H379.335C379.397 84.8611 379.459 84.874 379.516 84.8988C379.573 84.9236 379.624 84.9598 379.665 85.005C379.705 85.0548 379.734 85.1119 379.749 85.173C379.765 85.234 379.767 85.2975 379.757 85.3595L328.481 335.168C328.478 335.223 328.464 335.277 328.44 335.327C328.415 335.377 328.381 335.422 328.338 335.459C328.296 335.496 328.247 335.525 328.193 335.543C328.139 335.562 328.082 335.57 328.025 335.567ZM163.808 334.725H327.672L378.811 85.7362H214.935L163.808 334.725Z" fill="black"/>
<path d="M353.652 126.948H123.927L131.903 101.401H360.5L353.652 126.948Z" fill="#CB6CE6"/>
<path d="M347.715 122.007H117.99C117.924 122.008 117.858 121.994 117.798 121.965C117.739 121.936 117.687 121.894 117.648 121.841C117.61 121.789 117.583 121.729 117.572 121.666C117.56 121.602 117.563 121.537 117.58 121.475L125.556 95.9173C125.583 95.8315 125.637 95.7562 125.711 95.7024C125.785 95.6486 125.874 95.6191 125.966 95.6182H354.563C354.628 95.6177 354.692 95.6326 354.749 95.6615C354.807 95.6905 354.856 95.7326 354.894 95.7844C354.936 95.8321 354.966 95.8897 354.98 95.9517C354.994 96.0136 354.992 96.078 354.973 96.1389L348.137 121.697C348.111 121.787 348.056 121.866 347.98 121.922C347.904 121.978 347.811 122.008 347.715 122.007ZM118.571 121.176H347.385L354.005 96.4602H126.297L118.571 121.176Z" fill="black"/>
<path d="M289.204 11.1228C290.264 16.4737 286.663 27.818 285.604 30.499C284.544 33.18 285.182 45.1226 285.182 45.1226C285.182 45.1226 251.899 50.6618 256.776 43.483C261.652 36.3041 258.473 21.6362 259.738 11.5327C261.003 1.42912 273.309 2.8804 273.309 2.8804C283.484 -0.0110781 288.145 5.7608 289.204 11.1228Z" fill="black"/>
<path d="M440.888 333.584C441.085 335.171 441.138 336.773 441.047 338.369C439.646 339.61 435.02 341.039 433.208 341.56C433.208 341.56 433.128 341.649 433.094 341.671C429.277 343.056 416.401 343.321 416.561 341.771C416.72 340.22 426.576 335.123 426.576 335.123C427.275 332.284 427.702 329.387 427.853 326.471C428.001 324.532 428.502 318.716 429.106 311.648C428.434 299.462 428.331 274.834 428.331 274.834C429.46 275.711 430.747 276.376 432.125 276.795V276.541C439.589 279.476 451.2 277.416 451.2 277.416C451.2 277.416 443.885 302.043 439.874 316.279C440.227 324.566 440.728 331.911 440.888 333.584Z" fill="#FF66C4"/>
<path d="M449.468 157.048C473.636 159.674 465.42 176.059 464.418 180.546C463.415 185.032 460.122 202.492 456.305 203.268C452.488 204.043 435.487 203.733 435.487 203.733L428.491 168.947L418.783 168.636C418.783 168.636 420.857 164.925 424.355 159.053C427.853 153.182 439.168 156.428 439.168 156.428L449.468 157.048Z" fill="#CB6CE6"/>
<path d="M342.633 80.3742L331.182 65.3297L316.129 71.7109C316.129 71.7109 302.559 38.9408 280.305 41.2119L269.07 39.7717C265.375 39.6916 261.702 40.3449 258.276 41.6916C254.849 43.0383 251.741 45.0501 249.141 47.6041C240.447 56.2564 232.824 66.7699 231.753 74.3919C230.682 82.0138 230.693 100.781 258.257 99.9499L259.658 84.1852L334.361 85.9356L342.633 80.3742ZM250.417 75.2228C251.899 67.8002 254.861 66.36 254.861 66.36L255.237 82.3019C252.48 81.3048 249.597 79.2885 250.417 75.2228Z" fill="#CB6CE6"/>
<path d="M456.305 203.268C456.305 203.268 461.341 212.906 462.002 220.317C462.663 227.729 463.278 237.434 459.666 245.056C456.054 252.678 451.565 277.316 451.565 277.316C443.687 279.295 435.341 278.47 428.035 274.99C428.035 274.99 427.021 272.054 424.058 259.48C421.096 246.906 424.48 225.679 425.54 219.088C426.227 214.03 426.581 208.934 426.599 203.833L456.305 203.268Z" fill="#F4E3E0"/>
<path d="M443.087 278.756C437.787 278.798 432.55 277.633 427.796 275.355C427.705 275.302 427.636 275.22 427.602 275.122C427.602 275.001 426.554 272.021 423.614 259.613C421.631 251.182 422.121 237.544 425.095 219.054C425.774 214.018 426.124 208.945 426.144 203.866C426.143 203.756 426.188 203.651 426.266 203.572C426.345 203.493 426.452 203.448 426.565 203.445L456.305 202.88C456.385 202.881 456.463 202.903 456.532 202.944C456.6 202.985 456.655 203.043 456.692 203.112C456.897 203.511 461.774 212.906 462.389 220.317C463.085 228.482 463.529 237.81 460.019 245.266C456.51 252.722 451.986 277.172 451.941 277.394C451.926 277.473 451.888 277.546 451.831 277.605C451.775 277.664 451.702 277.706 451.622 277.726C448.832 278.414 445.965 278.761 443.087 278.756ZM428.365 274.701C435.465 277.992 443.516 278.794 451.155 276.973C451.679 274.148 455.826 252.135 459.245 244.845C462.663 237.555 462.23 228.382 461.524 220.317C460.965 213.67 456.783 205.173 456.02 203.7L426.987 204.254C426.95 209.241 426.592 214.221 425.916 219.165C422.964 237.544 422.497 251.082 424.434 259.402C427.021 270.27 428.126 273.948 428.365 274.701Z" fill="black"/>
<path d="M404.323 168.481L428.491 168.947L435.487 203.733H411L404.323 168.481Z" fill="#F4E3E0"/>
<path d="M435.476 204.143H411C410.901 204.145 410.804 204.112 410.727 204.051C410.65 203.991 410.597 203.905 410.579 203.81L403.901 168.559C403.887 168.499 403.888 168.436 403.904 168.376C403.92 168.317 403.95 168.261 403.993 168.215C404.031 168.167 404.082 168.129 404.139 168.103C404.197 168.078 404.26 168.067 404.323 168.071L428.491 168.526C428.591 168.528 428.686 168.564 428.763 168.626C428.839 168.689 428.892 168.774 428.912 168.869L435.897 203.644C435.914 203.705 435.915 203.769 435.901 203.831C435.887 203.892 435.859 203.95 435.817 203.999C435.773 204.044 435.72 204.08 435.662 204.104C435.603 204.129 435.54 204.142 435.476 204.143ZM411.342 203.312H434.951L428.115 169.356L404.824 168.913L411.342 203.312Z" fill="black"/>
<path d="M431.191 195.535C431.191 195.535 419.102 190.439 420.218 189.198C420.552 188.841 420.981 188.579 421.457 188.443C421.933 188.306 422.439 188.299 422.919 188.422C422.919 188.422 418.361 187.315 419.421 185.797C420.48 184.279 422.759 185.332 422.759 185.332C422.759 185.332 420.378 183.171 421.62 182.086C422.862 181 428.924 184.301 430.2 184.711C431.476 185.121 429.243 181.62 430.997 181.011C432.752 180.402 434.655 185.332 434.655 185.332L431.191 195.535Z" fill="#FF66C4"/>
<path d="M458.299 201.251C457.159 203.966 454.881 203.467 454.881 203.467C446.449 203.002 431.191 195.579 431.191 195.579C431.398 191.935 432.606 188.412 434.689 185.376L449.502 190.018L453.16 177.344" fill="#CB6CE6"/>
<path d="M455.325 203.877C455.143 203.898 454.959 203.898 454.778 203.877C446.437 203.434 431.624 196.266 430.997 195.967C430.923 195.929 430.861 195.872 430.818 195.801C430.776 195.731 430.755 195.65 430.758 195.568C430.962 191.843 432.198 188.241 434.336 185.143C434.391 185.074 434.466 185.023 434.551 184.995C434.636 184.968 434.728 184.965 434.815 184.988L449.183 189.497L452.715 177.244C452.745 177.137 452.816 177.046 452.914 176.99C453.012 176.934 453.129 176.918 453.239 176.945C453.35 176.976 453.444 177.048 453.502 177.145C453.559 177.242 453.575 177.357 453.547 177.466L449.889 190.14C449.855 190.249 449.777 190.341 449.673 190.394C449.621 190.416 449.565 190.427 449.508 190.427C449.451 190.427 449.395 190.416 449.343 190.394L434.86 185.852C432.996 188.694 431.888 191.941 431.635 195.302C433.652 196.266 447.246 202.603 454.903 203.057C455.063 203.057 456.874 203.478 457.9 201.152C457.922 201.101 457.955 201.054 457.995 201.016C458.036 200.977 458.084 200.946 458.137 200.926C458.19 200.905 458.247 200.895 458.304 200.896C458.361 200.896 458.417 200.908 458.47 200.93C458.522 200.95 458.569 200.981 458.608 201.02C458.648 201.059 458.679 201.105 458.699 201.156C458.719 201.207 458.728 201.261 458.726 201.316C458.724 201.37 458.71 201.424 458.686 201.473C458.45 202.162 458.001 202.764 457.399 203.195C456.796 203.625 456.072 203.864 455.325 203.877Z" fill="black"/>
<path d="M437.709 132.388C437.709 132.388 436.752 123.669 441.002 122.838C443.566 122.317 444.09 124.079 446.221 123.769C448.351 123.458 451.223 122.007 454.311 123.458C455.201 123.863 455.978 124.471 456.573 125.231C457.168 125.992 457.565 126.881 457.729 127.823C457.729 127.823 462.196 117.133 471.346 124.4C477.954 130.515 468.793 138.403 463.369 137.063C463.369 137.063 465.284 143.71 459.324 147.033C453.365 150.357 450.596 151.465 449.639 153.68C448.682 155.896 443.247 145.017 443.247 145.017L437.709 132.388Z" fill="black"/>
<path d="M444.067 129.219C443.748 133.551 450.744 139.733 450.744 139.733C450.744 139.733 455.94 138.625 454.664 142.923C453.388 147.222 450.425 145.914 450.425 145.914L449.161 158.311L442.472 165.734L438.985 157.702L441.526 149.947C429.756 147.787 437.709 132.321 437.709 132.321C441.207 132.31 444.067 129.219 444.067 129.219Z" fill="#FF66C4"/>
<path d="M429.015 307.682C429.79 298.731 430.656 288.738 431.191 282.534C431.196 282.479 431.211 282.426 431.237 282.377C431.263 282.328 431.299 282.284 431.343 282.249C431.386 282.214 431.437 282.188 431.491 282.172C431.545 282.156 431.602 282.151 431.659 282.157C431.772 282.169 431.875 282.222 431.948 282.307C432.02 282.392 432.056 282.502 432.046 282.612L429.87 307.76C429.861 307.862 429.813 307.958 429.735 308.028C429.657 308.098 429.554 308.137 429.448 308.136C429.388 308.136 429.329 308.125 429.274 308.101C429.219 308.078 429.17 308.044 429.129 308.001C429.088 307.959 429.057 307.908 429.038 307.853C429.018 307.798 429.01 307.74 429.015 307.682ZM441.048 338.369C440.182 335.976 436.581 334.226 435.59 333.772L440.148 316.678C440.17 316.622 440.18 316.563 440.177 316.503C440.175 316.444 440.159 316.385 440.131 316.332C440.103 316.279 440.064 316.232 440.016 316.195C439.969 316.158 439.913 316.13 439.854 316.115C439.795 316.1 439.733 316.098 439.672 316.108C439.612 316.118 439.554 316.14 439.503 316.173C439.452 316.207 439.409 316.25 439.377 316.301C439.345 316.351 439.324 316.408 439.316 316.467L432.809 340.895C431.864 336.885 426.588 335.123 426.588 335.123C422.85 336.708 419.452 338.963 416.572 341.77C418.851 344.175 431.317 342.756 432.878 341.77L433.003 341.826H433.106C433.169 341.822 433.231 341.805 433.287 341.774C433.342 341.743 433.389 341.7 433.425 341.649C436.41 341.194 441.048 338.369 441.048 338.369Z" fill="black"/>
<path d="M359.349 57.1205L252.651 128.931C252.377 129.116 252.068 129.247 251.741 129.316C251.415 129.384 251.078 129.389 250.749 129.331C250.421 129.272 250.108 129.151 249.828 128.974C249.548 128.797 249.307 128.568 249.119 128.3L239.103 114.23C238.72 113.692 238.572 113.028 238.691 112.385C238.811 111.741 239.188 111.169 239.741 110.796L346.393 38.9851C346.947 38.6127 347.629 38.4688 348.292 38.5852C348.954 38.7015 349.542 39.0684 349.926 39.6055L359.953 53.6862C360.146 53.9501 360.283 54.2484 360.357 54.5639C360.431 54.8795 360.44 55.2062 360.384 55.5253C360.328 55.8443 360.208 56.1495 360.03 56.4233C359.853 56.697 359.621 56.934 359.349 57.1205Z" fill="#F4E3E0"/>
<path d="M251.215 129.784C250.734 129.785 250.26 129.673 249.833 129.457C249.406 129.241 249.04 128.927 248.765 128.543L238.749 114.474C238.301 113.843 238.128 113.066 238.269 112.312C238.41 111.558 238.853 110.889 239.501 110.452L346.2 38.6638C346.52 38.4482 346.88 38.2961 347.261 38.2162C347.642 38.1362 348.035 38.1301 348.418 38.198C348.801 38.2659 349.167 38.4066 349.494 38.612C349.821 38.8174 350.103 39.0834 350.324 39.395L360.352 53.4647C360.794 54.0967 360.966 54.8717 360.83 55.625C360.762 56.0003 360.618 56.3589 360.406 56.6801C360.195 57.0013 359.921 57.279 359.6 57.4972L252.958 129.275C252.446 129.617 251.836 129.796 251.215 129.784ZM347.886 38.9408C347.458 38.9375 347.039 39.0654 346.69 39.3064L239.991 111.139C239.763 111.292 239.567 111.488 239.416 111.714C239.266 111.941 239.162 112.194 239.113 112.46C239.063 112.726 239.068 112.998 239.126 113.262C239.185 113.526 239.297 113.776 239.456 113.997L249.472 128.067C249.791 128.514 250.28 128.819 250.831 128.917C251.382 129.014 251.95 128.896 252.411 128.588L359.11 56.7771C359.338 56.6242 359.533 56.4291 359.683 56.2029C359.834 55.9767 359.937 55.7238 359.987 55.4588C360.082 54.9218 359.96 54.3698 359.645 53.9189L349.618 39.8492C349.462 39.6261 349.262 39.4356 349.029 39.2891C348.796 39.1426 348.535 39.043 348.262 38.9962L347.886 38.9408Z" fill="black"/>
<path d="M337.54 73.5721L343.055 69.8608C343.055 69.8608 344.331 60.998 346.018 60.7875C347.704 60.577 348.775 65.3297 348.775 65.3297C348.775 65.3297 348.353 57.9071 350.689 57.6966C353.025 57.4861 353.652 69.4509 348.41 73.3616C343.169 77.2723 342.052 78.9008 342.052 78.9008L337.54 73.5721Z" fill="#F4E3E0"/>
<path d="M341.995 79.3439C341.932 79.344 341.869 79.33 341.812 79.3032C341.755 79.2763 341.704 79.2372 341.665 79.1888L337.21 73.8379C337.171 73.7943 337.142 73.7429 337.127 73.6873C337.111 73.6317 337.108 73.5734 337.118 73.5167C337.124 73.4584 337.144 73.4022 337.176 73.3523C337.207 73.3024 337.25 73.2601 337.301 73.2286L342.656 69.617C343.078 66.7699 344.183 60.5992 345.972 60.3776C346.997 60.2447 347.795 61.3636 348.342 62.5933C348.456 60.289 348.946 57.4529 350.621 57.3089C351.088 57.3089 351.76 57.4751 352.205 58.6937C353.538 62.0172 352.957 70.4922 348.593 73.7161C343.465 77.5049 342.348 79.1556 342.337 79.1778C342.298 79.2319 342.247 79.277 342.188 79.3096C342.129 79.3422 342.063 79.3615 341.995 79.3661V79.3439ZM338.167 73.6607L341.984 78.2582C343.827 76.3071 345.874 74.5473 348.091 73.0071C352.079 70.0602 352.649 62.0172 351.43 58.9485C351.213 58.4056 350.94 58.029 350.723 58.0954C349.402 58.2062 349.037 62.3717 349.208 65.2854C349.214 65.3906 349.179 65.4942 349.109 65.5746C349.039 65.6551 348.94 65.7062 348.832 65.7174C348.725 65.7312 348.617 65.7059 348.529 65.6465C348.44 65.5872 348.378 65.4979 348.353 65.3962C347.966 63.6347 346.975 61.0977 346.075 61.1863C345.174 61.275 344.115 65.2521 343.477 69.9162C343.471 69.9744 343.451 70.0306 343.419 70.0805C343.388 70.1304 343.345 70.1727 343.294 70.2042L338.167 73.6607Z" fill="black"/>
<path d="M261.539 114.075C261.538 115.3 261.164 116.497 260.463 117.515C259.762 118.533 258.765 119.325 257.6 119.791C256.435 120.257 255.154 120.377 253.919 120.134C252.684 119.89 251.551 119.296 250.664 118.426C249.777 117.556 249.176 116.449 248.938 115.247C248.699 114.044 248.833 112.799 249.323 111.671C249.813 110.542 250.637 109.58 251.69 108.908C252.743 108.235 253.977 107.882 255.237 107.893C256.914 107.908 258.516 108.565 259.696 109.723C260.877 110.881 261.539 112.445 261.539 114.075Z" fill="#CB6CE6"/>
<path d="M262.917 105.932C262.826 105.934 262.736 105.907 262.661 105.855C262.587 105.803 262.532 105.729 262.505 105.643C262.478 105.558 262.48 105.467 262.511 105.383C262.543 105.299 262.601 105.228 262.678 105.179L346.621 49.1108C346.667 49.0713 346.721 49.0416 346.779 49.0238C346.838 49.006 346.9 49.0004 346.96 49.0075C347.021 49.0145 347.08 49.0341 347.132 49.0648C347.185 49.0955 347.23 49.1366 347.265 49.1856C347.3 49.2345 347.324 49.2901 347.335 49.3486C347.346 49.4072 347.344 49.4673 347.33 49.5252C347.315 49.583 347.288 49.6372 347.251 49.6842C347.213 49.7312 347.165 49.7699 347.111 49.7977L263.213 105.866C263.124 105.918 263.021 105.941 262.917 105.932ZM266.552 111.217L350.507 55.1597C350.599 55.0969 350.663 55.0017 350.684 54.8941C350.705 54.7865 350.683 54.6751 350.621 54.5836C350.589 54.5376 350.548 54.4982 350.5 54.4677C350.452 54.4372 350.399 54.4162 350.343 54.406C350.286 54.3957 350.229 54.3963 350.173 54.4077C350.117 54.4192 350.064 54.4413 350.017 54.4728L266.073 110.53C265.999 110.581 265.943 110.653 265.914 110.737C265.885 110.821 265.883 110.911 265.909 110.996C265.936 111.081 265.989 111.155 266.062 111.208C266.134 111.262 266.222 111.292 266.313 111.294C266.399 111.296 266.484 111.269 266.552 111.217Z" fill="black"/>
<path d="M259.533 84.2849C259.533 84.2849 267.156 79.7538 271.19 79.9643C275.223 80.1748 280.522 82.6342 281.581 84.2849C282.641 85.9356 277.331 84.4954 277.331 84.4954C277.331 84.4954 283.724 89.6247 282.641 90.4667C281.559 91.3087 276.944 89.0265 276.944 89.0265C276.944 89.0265 281.616 92.7378 279.496 93.3582C277.377 93.9786 273.981 90.6772 270.164 90.4667C266.347 90.2562 259.134 90.4667 259.134 90.4667L259.533 84.2849Z" fill="#F4E3E0"/>
<path d="M278.881 93.8567C277.587 93.6907 276.345 93.2603 275.234 92.5938C273.66 91.6982 271.916 91.1181 270.107 90.8877C266.347 90.6883 259.191 90.8877 259.123 90.8877C259.062 90.8943 259 90.8867 258.942 90.8655C258.885 90.8443 258.833 90.8102 258.792 90.7658C258.751 90.7229 258.72 90.6722 258.7 90.6169C258.681 90.5615 258.673 90.5029 258.678 90.4446L259.1 84.2628C259.107 84.1963 259.13 84.1322 259.165 84.0748C259.201 84.0175 259.248 83.9682 259.305 83.9304C259.624 83.7421 267.087 79.3329 271.212 79.499C275.337 79.6652 280.784 82.2243 281.946 84.019C282.07 84.1612 282.142 84.3388 282.153 84.5249C282.163 84.7109 282.11 84.8951 282.003 85.0493C281.593 85.5922 280.248 85.4925 278.961 85.2598C280.727 86.7776 283.199 89.1041 283.188 90.1787C283.189 90.2895 283.164 90.3992 283.115 90.4991C283.065 90.599 282.993 90.6865 282.903 90.7547C282.197 91.3087 280.522 90.8877 279.052 90.3559C279.861 91.209 280.567 92.1949 280.419 92.904C280.368 93.101 280.263 93.2806 280.114 93.4232C279.965 93.5659 279.779 93.666 279.576 93.7127C279.353 93.7958 279.119 93.8443 278.881 93.8567ZM265.583 89.9682C267.224 89.9682 268.876 89.9682 270.141 90.0568C272.071 90.2867 273.932 90.8975 275.611 91.8515C277.115 92.5827 278.425 93.2252 279.325 92.9594C279.542 92.8929 279.553 92.8153 279.564 92.7932C279.678 92.2282 278.14 90.5775 276.625 89.3478C276.545 89.2829 276.492 89.1915 276.478 89.0912C276.463 88.991 276.487 88.889 276.545 88.8049C276.599 88.7171 276.687 88.6532 276.789 88.6264C276.89 88.5995 276.999 88.6119 277.092 88.6609C279.223 89.6912 281.843 90.5332 282.356 90.1454C282.356 89.6469 279.963 87.1764 277.046 84.8167C276.974 84.7523 276.925 84.6667 276.906 84.5729C276.888 84.4791 276.901 84.382 276.944 84.296C276.991 84.2123 277.067 84.1469 277.158 84.1107C277.249 84.0744 277.351 84.0694 277.445 84.0966C278.671 84.5078 279.968 84.681 281.262 84.6062C281.257 84.5731 281.257 84.5396 281.262 84.5065C280.351 83.0995 275.28 80.5847 271.212 80.3742H270.95C267.395 80.3742 261.151 83.864 259.989 84.5397L259.613 90.079C260.581 90.0125 263.065 89.9682 265.583 89.9682Z" fill="black"/>
<path d="M318.442 96.1721L309.543 121.752C309.514 121.835 309.459 121.906 309.385 121.956C309.311 122.006 309.223 122.032 309.133 122.029C309.088 122.04 309.041 122.04 308.996 122.029C308.943 122.013 308.893 121.986 308.851 121.951C308.808 121.916 308.773 121.873 308.747 121.825C308.722 121.776 308.707 121.723 308.702 121.669C308.698 121.615 308.705 121.56 308.723 121.509L317.633 95.9505C317.651 95.8989 317.68 95.8512 317.716 95.8102C317.753 95.7691 317.798 95.7356 317.848 95.7114C317.899 95.6872 317.953 95.6729 318.009 95.6693C318.065 95.6656 318.121 95.6727 318.175 95.6902C318.228 95.7077 318.277 95.7351 318.319 95.771C318.361 95.8069 318.396 95.8505 318.421 95.8994C318.445 95.9483 318.46 96.0014 318.464 96.0558C318.468 96.1102 318.46 96.1648 318.442 96.2164V96.1721ZM336.298 117.609C336.229 117.661 336.145 117.688 336.058 117.686C335.988 117.686 335.919 117.669 335.857 117.636C335.795 117.603 335.743 117.556 335.705 117.498L332.56 113.067C331.613 113.557 330.556 113.812 329.484 113.809C327.912 113.812 326.391 113.268 325.196 112.276C324.001 111.284 323.21 109.909 322.966 108.4C322.722 106.891 323.041 105.346 323.866 104.045C324.69 102.745 325.966 101.774 327.463 101.308C328.959 100.841 330.578 100.911 332.026 101.504C333.475 102.096 334.658 103.173 335.361 104.539C336.065 105.905 336.243 107.471 335.863 108.954C335.483 110.436 334.57 111.738 333.289 112.624L336.411 117.055C336.469 117.144 336.49 117.251 336.468 117.354C336.447 117.457 336.386 117.548 336.298 117.609ZM329.461 112.934C330.588 112.934 331.689 112.609 332.626 112C333.563 111.392 334.293 110.527 334.724 109.514C335.156 108.502 335.268 107.388 335.049 106.314C334.829 105.239 334.286 104.252 333.489 103.478C332.693 102.703 331.677 102.176 330.572 101.962C329.467 101.748 328.322 101.858 327.281 102.277C326.24 102.696 325.35 103.406 324.724 104.317C324.098 105.228 323.764 106.299 323.764 107.395C323.776 108.86 324.384 110.261 325.456 111.291C326.528 112.321 327.977 112.895 329.484 112.89L329.461 112.934Z" fill="black"/>
<path d="M152.447 116.889C152.292 116.9 152.135 116.9 151.98 116.889C151.501 116.832 151.048 116.648 150.67 116.357C150.292 116.065 150.004 115.678 149.838 115.238C149.672 114.655 149.671 114.038 149.833 113.454C149.995 112.87 150.316 112.338 150.761 111.915C151.506 111.224 152.386 110.687 153.349 110.335C154.312 109.983 155.339 109.823 156.367 109.865C155.888 108.048 154.27 106.542 151.706 105.755C143.183 102.996 135.082 112.325 135.002 112.402C134.921 112.479 134.813 112.521 134.7 112.521C134.587 112.521 134.479 112.479 134.398 112.402C134.356 112.365 134.323 112.319 134.3 112.269C134.277 112.218 134.266 112.164 134.266 112.108C134.266 112.053 134.277 111.999 134.3 111.948C134.323 111.898 134.356 111.852 134.398 111.815C134.74 111.405 142.955 101.933 152.025 104.88C155.341 105.988 156.857 107.86 157.278 109.799C158.719 109.858 160.148 110.073 161.54 110.441C164.537 111.195 166.724 111.859 168.479 112.391C173.367 113.864 174.393 114.175 178.632 112.114C178.732 112.079 178.843 112.081 178.942 112.12C179.041 112.159 179.122 112.232 179.169 112.326C179.215 112.42 179.225 112.527 179.195 112.627C179.165 112.727 179.099 112.812 179.008 112.867C174.45 115.083 173.14 114.673 168.228 113.189C166.474 112.657 164.297 111.992 161.323 111.25C160.041 110.916 158.728 110.708 157.404 110.63C157.434 111.229 157.376 111.829 157.233 112.413C156.538 114.972 154.453 116.889 152.447 116.889ZM156.492 110.674C153.461 110.674 151.934 111.782 151.399 112.457C151.059 112.772 150.811 113.168 150.681 113.606C150.551 114.044 150.543 114.508 150.658 114.95C150.766 115.251 150.961 115.516 151.22 115.713C151.478 115.909 151.79 116.029 152.117 116.058C153.803 116.313 155.774 114.551 156.344 112.28C156.477 111.755 156.527 111.213 156.492 110.674ZM202.822 114.895C202.589 114.892 202.358 114.851 202.139 114.773C201.78 114.691 201.456 114.503 201.212 114.235C200.967 113.968 200.813 113.633 200.771 113.277C200.834 112.656 201.055 112.06 201.412 111.542C201.77 111.024 202.255 110.6 202.822 110.308C203.4 110.002 204.017 109.771 204.657 109.621C204.161 109.066 203.53 108.64 202.822 108.381C197.866 106.442 192.123 112.535 192.066 112.601C191.985 112.678 191.877 112.721 191.764 112.721C191.651 112.721 191.543 112.678 191.462 112.601C191.422 112.563 191.39 112.518 191.368 112.467C191.346 112.417 191.335 112.363 191.335 112.308C191.335 112.253 191.346 112.199 191.368 112.149C191.39 112.098 191.422 112.053 191.462 112.014C191.713 111.748 197.672 105.434 203.175 107.583C204.189 107.918 205.065 108.563 205.671 109.422C208.554 109.023 211.869 109.81 214.673 110.53C215.504 110.718 216.279 110.906 216.951 111.05C220.165 111.682 222.25 110.895 224.791 109.322C224.886 109.263 225.002 109.243 225.113 109.266C225.223 109.288 225.321 109.353 225.383 109.444C225.414 109.49 225.436 109.542 225.446 109.597C225.455 109.651 225.454 109.707 225.441 109.76C225.428 109.814 225.405 109.865 225.371 109.91C225.338 109.954 225.295 109.992 225.247 110.02C222.603 111.682 220.256 112.557 216.769 111.87C216.051 111.726 215.265 111.538 214.49 111.339C211.847 110.718 208.725 109.976 206.058 110.231C206.271 110.961 206.231 111.74 205.944 112.446C205.728 113.107 205.317 113.692 204.762 114.127C204.207 114.563 203.532 114.829 202.822 114.895ZM205.101 110.375C204.451 110.504 203.825 110.728 203.244 111.039C202.819 111.263 202.454 111.58 202.177 111.964C201.9 112.349 201.719 112.791 201.649 113.255C201.649 113.377 201.649 113.765 202.446 114.031C203.244 114.296 204.566 113.488 205.056 112.236C205.315 111.644 205.331 110.978 205.101 110.375Z" fill="#F4E3E0"/>
<path d="M287.518 280.097L303.197 217.437L314.227 217.647L299.175 280.097H287.518ZM240.675 278.103L247.443 249.997L236.425 249.797L229.315 278.191L240.675 278.103ZM282.436 278.512L289.204 250.418L278.186 250.207L271.076 278.601L282.436 278.512ZM217.362 280.728L221.578 263.202L210.559 263.003L206.127 280.728H217.362ZM258.006 280.728L269.287 233.933L258.257 233.733L246.498 280.728H258.006Z" fill="#CB6CE6"/>
<path d="M327.262 280.174H279.53L286.23 252.345C286.246 252.284 286.247 252.22 286.233 252.159C286.219 252.097 286.191 252.04 286.151 251.991C286.111 251.942 286.06 251.902 286.004 251.873C285.947 251.845 285.884 251.828 285.82 251.824L274.802 251.625C274.706 251.625 274.613 251.657 274.539 251.716C274.464 251.774 274.412 251.855 274.391 251.946L267.304 280.174H238.658L245.324 252.545C245.337 252.484 245.337 252.422 245.323 252.362C245.309 252.301 245.281 252.245 245.242 252.196C245.203 252.148 245.153 252.108 245.096 252.08C245.04 252.052 244.977 252.037 244.914 252.035L233.884 251.824C233.786 251.822 233.691 251.853 233.614 251.912C233.537 251.97 233.483 252.053 233.462 252.146L226.443 280.174H191.12L203.962 228.46C203.989 228.351 203.971 228.237 203.911 228.141C203.851 228.045 203.755 227.977 203.643 227.95C203.531 227.924 203.413 227.942 203.315 228C203.216 228.058 203.146 228.152 203.119 228.261L190.106 280.507C190.093 280.57 190.093 280.635 190.107 280.698C190.12 280.76 190.147 280.82 190.186 280.872C190.227 280.922 190.279 280.962 190.338 280.989C190.397 281.016 190.462 281.029 190.528 281.027H226.569C226.636 281.045 226.707 281.045 226.774 281.027H233.451H327.262C327.377 281.027 327.487 280.983 327.568 280.904C327.649 280.825 327.695 280.718 327.695 280.606C327.698 280.55 327.689 280.493 327.669 280.44C327.648 280.387 327.617 280.339 327.576 280.298C327.535 280.257 327.486 280.225 327.432 280.204C327.378 280.183 327.32 280.173 327.262 280.174ZM275.132 252.478L285.273 252.666L278.699 279.942L268.227 280.019L275.132 252.478ZM234.214 252.678L244.367 252.877L237.792 280.174H233.417H227.332L234.214 252.678Z" fill="black"/>
<path d="M309.726 213.482C309.735 213.592 309.7 213.701 309.628 213.786C309.555 213.871 309.451 213.925 309.338 213.936C309.232 213.936 309.13 213.898 309.052 213.828C308.974 213.758 308.925 213.662 308.917 213.559L308.552 209.948L279.61 241.544C279.569 241.592 279.516 241.631 279.457 241.656C279.397 241.681 279.333 241.692 279.268 241.688C279.202 241.684 279.137 241.665 279.08 241.632C279.022 241.599 278.974 241.554 278.938 241.499L267.543 225.325L248.4 253.586C248.362 253.648 248.307 253.699 248.24 253.733C248.174 253.766 248.099 253.78 248.024 253.774C247.95 253.772 247.878 253.751 247.815 253.714C247.751 253.677 247.698 253.626 247.66 253.564L239.103 238.697L220.404 265.65C220.371 265.704 220.324 265.748 220.268 265.779C220.213 265.811 220.149 265.827 220.085 265.828C220.025 265.83 219.965 265.819 219.91 265.796C219.855 265.773 219.806 265.738 219.766 265.695L209.876 254.871L201.296 262.327C201.209 262.381 201.105 262.404 201.003 262.39C200.901 262.377 200.807 262.328 200.738 262.253C200.669 262.179 200.63 262.082 200.628 261.982C200.626 261.882 200.66 261.784 200.726 261.706L209.625 253.952C209.713 253.884 209.821 253.845 209.933 253.841C210.046 253.852 210.151 253.903 210.229 253.985L220.039 264.709L238.806 237.644C238.845 237.582 238.899 237.531 238.964 237.495C239.029 237.46 239.102 237.441 239.177 237.441C239.251 237.441 239.324 237.46 239.389 237.495C239.454 237.531 239.508 237.582 239.547 237.644L248.116 252.478L267.122 224.295C267.16 224.238 267.213 224.191 267.274 224.158C267.336 224.125 267.405 224.107 267.475 224.106C267.544 224.112 267.611 224.132 267.672 224.164C267.733 224.197 267.786 224.241 267.828 224.295L279.291 240.547L307.777 209.527L304.359 210.635C304.304 210.662 304.243 210.678 304.182 210.681C304.12 210.684 304.058 210.674 304 210.652C303.943 210.63 303.891 210.596 303.848 210.553C303.805 210.509 303.772 210.457 303.752 210.401C303.731 210.344 303.723 210.283 303.729 210.223C303.734 210.164 303.753 210.105 303.784 210.053C303.814 210.001 303.856 209.955 303.906 209.92C303.956 209.885 304.013 209.86 304.074 209.848L308.632 208.297C308.691 208.27 308.755 208.257 308.82 208.257C308.885 208.257 308.949 208.27 309.008 208.297C309.061 208.333 309.105 208.379 309.139 208.432C309.172 208.486 309.194 208.545 309.202 208.607L309.726 213.482Z" fill="black"/>
<path d="M348.353 169.39L370.425 163.474C371.698 167.963 371.49 172.728 369.832 177.097C368.173 181.466 365.146 185.219 361.178 187.828C357.21 190.436 352.5 191.769 347.712 191.637C342.924 191.506 338.299 189.918 334.488 187.097C330.677 184.275 327.873 180.363 326.469 175.91C325.066 171.457 325.135 166.689 326.666 162.276C328.197 157.863 331.113 154.028 335.004 151.312C338.894 148.595 343.563 147.134 348.353 147.133C349.21 147.133 350.066 147.177 350.917 147.266L348.353 169.39Z" fill="#F4E3E0"/>
<path d="M351.852 165.39L355.84 143.477C360.014 144.193 363.901 146.022 367.068 148.76C370.235 151.499 372.557 155.04 373.775 158.987L351.852 165.39Z" fill="#F4E3E0"/>
<path d="M348.353 192.089C342.167 192.089 336.235 189.7 331.86 185.447C327.486 181.194 325.029 175.426 325.029 169.412C325.029 163.397 327.486 157.629 331.86 153.376C336.235 149.123 342.167 146.734 348.353 146.734C349.225 146.732 350.097 146.78 350.963 146.878C351.02 146.884 351.076 146.9 351.127 146.927C351.178 146.953 351.223 146.99 351.259 147.033C351.328 147.122 351.361 147.233 351.35 147.344L348.855 168.847L370.322 163.097C370.376 163.08 370.433 163.075 370.489 163.08C370.545 163.086 370.6 163.103 370.649 163.13C370.698 163.157 370.741 163.193 370.775 163.237C370.809 163.281 370.833 163.332 370.846 163.385C371.803 166.752 371.947 170.287 371.266 173.717C370.586 177.146 369.099 180.376 366.923 183.155C364.747 185.934 361.94 188.186 358.72 189.736C355.501 191.285 351.957 192.091 348.365 192.089H348.353ZM348.353 147.565C343.908 147.565 339.563 148.847 335.867 151.248C332.172 153.65 329.292 157.063 327.592 161.057C325.892 165.05 325.448 169.444 326.317 173.682C327.186 177.921 329.328 181.813 332.473 184.868C335.618 187.922 339.623 190.001 343.984 190.841C348.344 191.682 352.863 191.246 356.968 189.589C361.074 187.932 364.581 185.129 367.048 181.533C369.514 177.937 370.828 173.711 370.823 169.39C370.822 167.57 370.585 165.757 370.117 163.994L348.467 169.788C348.4 169.81 348.328 169.815 348.259 169.802C348.189 169.789 348.125 169.759 348.071 169.714C348.017 169.67 347.976 169.612 347.951 169.548C347.927 169.483 347.92 169.413 347.932 169.345L350.45 147.643C349.812 147.598 349.048 147.565 348.353 147.565ZM351.852 165.811C351.799 165.812 351.747 165.803 351.698 165.784C351.649 165.765 351.604 165.736 351.567 165.701C351.512 165.655 351.47 165.596 351.446 165.53C351.422 165.464 351.417 165.393 351.43 165.324L355.418 143.4C355.428 143.346 355.448 143.296 355.478 143.25C355.508 143.205 355.546 143.165 355.592 143.134C355.637 143.104 355.689 143.082 355.743 143.07C355.797 143.059 355.853 143.058 355.908 143.067C360.15 143.8 364.1 145.662 367.319 148.447C370.538 151.233 372.899 154.831 374.139 158.843C374.171 158.949 374.159 159.063 374.106 159.16C374.053 159.257 373.962 159.33 373.854 159.364L351.931 165.789L351.852 165.811ZM356.181 143.965L352.398 164.792L373.228 158.688C371.999 154.969 369.765 151.639 366.757 149.049C363.75 146.458 360.081 144.702 356.136 143.965H356.181Z" fill="black"/>
<path d="M394.148 141.793C394.159 142.245 394.032 142.689 393.782 143.07C393.532 143.45 393.172 143.75 392.746 143.931C392.32 144.111 391.849 144.164 391.392 144.083C390.935 144.001 390.514 143.79 390.181 143.474C389.849 143.159 389.621 142.754 389.526 142.312C389.431 141.87 389.474 141.411 389.649 140.993C389.824 140.575 390.123 140.217 390.508 139.964C390.894 139.712 391.348 139.578 391.812 139.578C392.422 139.577 393.007 139.809 393.444 140.223C393.88 140.637 394.133 141.201 394.148 141.793ZM386.092 164.26C385.641 164.26 385.201 164.39 384.826 164.634C384.451 164.877 384.159 165.223 383.986 165.628C383.814 166.033 383.769 166.478 383.857 166.908C383.945 167.338 384.162 167.733 384.48 168.043C384.799 168.353 385.205 168.564 385.647 168.649C386.089 168.735 386.548 168.691 386.964 168.523C387.38 168.355 387.736 168.071 387.987 167.707C388.237 167.343 388.371 166.914 388.371 166.476C388.356 165.893 388.112 165.337 387.687 164.925C387.263 164.512 386.692 164.274 386.092 164.26Z" fill="#CB6CE6"/>
<path d="M390.49 137.661C389.841 137.661 389.213 137.883 388.715 138.288C388.217 138.693 387.882 139.256 387.767 139.877H371.883C371.81 139.877 371.738 139.896 371.674 139.931C371.611 139.966 371.557 140.016 371.518 140.076L361.127 156.361C361.068 156.457 361.051 156.571 361.078 156.679C361.106 156.787 361.177 156.88 361.275 156.937C361.345 156.972 361.423 156.991 361.503 156.993C361.576 156.992 361.648 156.974 361.711 156.939C361.775 156.904 361.829 156.854 361.867 156.793L372.122 140.719H387.767C387.852 141.224 388.083 141.694 388.435 142.076C388.786 142.457 389.242 142.732 389.749 142.869C390.256 143.007 390.793 143 391.296 142.85C391.799 142.7 392.248 142.413 392.589 142.024C392.93 141.634 393.149 141.157 393.22 140.65C393.292 140.143 393.212 139.627 392.992 139.162C392.771 138.698 392.418 138.304 391.975 138.029C391.532 137.753 391.017 137.606 390.49 137.606V137.661ZM390.49 142.203C390.114 142.203 389.746 142.095 389.433 141.891C389.12 141.688 388.876 141.399 388.732 141.061C388.588 140.723 388.551 140.351 388.624 139.992C388.697 139.633 388.879 139.304 389.145 139.045C389.411 138.786 389.75 138.61 390.119 138.538C390.488 138.467 390.871 138.504 391.218 138.644C391.566 138.784 391.863 139.021 392.072 139.325C392.282 139.629 392.393 139.987 392.393 140.353C392.393 140.596 392.344 140.837 392.248 141.061C392.153 141.285 392.012 141.489 391.836 141.661C391.659 141.833 391.449 141.969 391.218 142.062C390.988 142.155 390.74 142.203 390.49 142.203ZM384.793 164.67C384.174 164.665 383.57 164.863 383.082 165.233C382.593 165.603 382.247 166.123 382.1 166.709C381.954 167.294 382.015 167.91 382.274 168.457C382.534 169.004 382.975 169.45 383.528 169.722L379.426 178.884H361.503C361.388 178.884 361.278 178.928 361.196 179.007C361.115 179.086 361.07 179.193 361.07 179.305C361.07 179.417 361.115 179.524 361.196 179.603C361.278 179.682 361.388 179.726 361.503 179.726H379.734C379.817 179.725 379.898 179.701 379.967 179.655C380.036 179.61 380.09 179.546 380.121 179.471L384.36 169.988C384.512 169.999 384.664 169.999 384.816 169.988C385.547 169.988 386.248 169.705 386.766 169.203C387.283 168.7 387.573 168.018 387.573 167.307C387.573 166.596 387.283 165.914 386.766 165.411C386.248 164.908 385.547 164.626 384.816 164.626L384.793 164.67ZM384.793 169.201C384.417 169.201 384.049 169.093 383.736 168.89C383.423 168.686 383.179 168.397 383.035 168.059C382.891 167.721 382.853 167.349 382.927 166.99C383 166.631 383.181 166.302 383.447 166.043C383.714 165.784 384.053 165.608 384.422 165.537C384.791 165.465 385.173 165.502 385.521 165.642C385.869 165.782 386.166 166.019 386.375 166.323C386.584 166.628 386.696 166.985 386.696 167.351C386.696 167.838 386.499 168.305 386.147 168.652C385.795 168.998 385.316 169.196 384.816 169.201H384.793Z" fill="black"/>
<path d="M277.548 207.234H160.663L176.615 142.979H292.372L277.548 207.234Z" fill="black"/>
<path d="M272.671 202.392H155.809L171.761 138.137H287.495L272.671 202.392Z" fill="#F4E3E0"/>
<path d="M272.671 202.813H155.809C155.742 202.813 155.677 202.798 155.618 202.769C155.558 202.74 155.507 202.698 155.467 202.647C155.426 202.598 155.398 202.54 155.384 202.479C155.37 202.418 155.371 202.354 155.387 202.293L171.339 138.038C171.36 137.947 171.412 137.865 171.486 137.807C171.561 137.749 171.654 137.717 171.749 137.716H287.495C287.559 137.718 287.622 137.734 287.679 137.763C287.737 137.792 287.786 137.833 287.825 137.883C287.868 137.929 287.898 137.984 287.914 138.044C287.93 138.103 287.931 138.166 287.917 138.226L273.104 202.536C273.072 202.622 273.013 202.695 272.935 202.745C272.856 202.795 272.764 202.819 272.671 202.813ZM156.344 201.971H272.329L286.959 138.503H172.057L156.344 201.971Z" fill="black"/>
<path d="M295.995 184.667C295.995 187.929 295 191.119 293.136 193.831C291.272 196.544 288.622 198.658 285.522 199.907C282.422 201.156 279.01 201.482 275.719 200.846C272.428 200.209 269.405 198.638 267.032 196.331C264.659 194.024 263.043 191.085 262.389 187.885C261.734 184.685 262.07 181.368 263.354 178.354C264.638 175.34 266.813 172.764 269.603 170.951C272.393 169.138 275.673 168.171 279.029 168.171C283.529 168.171 287.844 169.909 291.026 173.003C294.208 176.096 295.995 180.292 295.995 184.667Z" fill="#CB6CE6"/>
<path d="M285.376 188.068C285.312 188.078 285.246 188.078 285.182 188.068C285.066 188.069 284.953 188.035 284.858 187.972C284.762 187.909 284.688 187.818 284.647 187.713L280.898 177.809L277.901 192.776C277.875 192.901 277.805 193.014 277.703 193.095C277.601 193.175 277.474 193.219 277.343 193.219H277.229C277.08 193.19 276.949 193.105 276.864 192.983C276.779 192.861 276.746 192.711 276.773 192.566L279.815 177.377L272.215 184.412C272.164 184.465 272.102 184.507 272.034 184.536C271.965 184.565 271.891 184.58 271.816 184.58C271.742 184.58 271.668 184.565 271.599 184.536C271.53 184.507 271.469 184.465 271.418 184.412C271.365 184.362 271.322 184.301 271.294 184.235C271.265 184.168 271.25 184.097 271.25 184.024C271.25 183.952 271.265 183.881 271.294 183.814C271.322 183.747 271.365 183.687 271.418 183.637L280.328 175.394C280.393 175.329 280.475 175.281 280.565 175.256C280.655 175.23 280.75 175.228 280.841 175.25C280.934 175.272 281.02 175.316 281.092 175.377C281.163 175.439 281.218 175.517 281.251 175.605L285.706 187.348C285.734 187.416 285.747 187.489 285.745 187.562C285.743 187.636 285.727 187.708 285.696 187.775C285.665 187.842 285.621 187.902 285.566 187.953C285.511 188.003 285.446 188.042 285.376 188.068Z" fill="#F4E3E0"/>
<path d="M212.678 196.82H165.961L178.495 145.095H222.934L212.678 196.82Z" fill="black"/>
<path d="M218.832 148.684L195.918 170.664L210.503 193.53C210.562 193.624 210.581 193.737 210.556 193.845C210.53 193.953 210.462 194.046 210.366 194.106C210.295 194.141 210.217 194.16 210.138 194.161C210.066 194.163 209.994 194.146 209.93 194.113C209.866 194.08 209.812 194.032 209.773 193.973L195.291 171.262L171.146 194.438C171.108 194.478 171.062 194.509 171.011 194.53C170.96 194.551 170.905 194.561 170.85 194.56C170.792 194.562 170.735 194.553 170.682 194.532C170.629 194.511 170.581 194.479 170.542 194.438C170.502 194.4 170.47 194.354 170.448 194.304C170.426 194.253 170.415 194.199 170.415 194.144C170.415 194.09 170.426 194.036 170.448 193.985C170.47 193.935 170.502 193.889 170.542 193.851L194.846 170.498L180.729 148.341C180.683 148.247 180.675 148.141 180.705 148.042C180.735 147.943 180.801 147.859 180.891 147.804C180.981 147.749 181.088 147.729 181.193 147.746C181.297 147.763 181.391 147.817 181.458 147.897L195.473 169.866L218.262 148.019C218.301 147.98 218.348 147.949 218.4 147.928C218.452 147.906 218.508 147.895 218.564 147.895C218.62 147.895 218.676 147.906 218.728 147.928C218.78 147.949 218.827 147.98 218.866 148.019C218.916 148.061 218.956 148.114 218.982 148.173C219.008 148.232 219.02 148.296 219.017 148.36C219.013 148.424 218.995 148.487 218.963 148.543C218.931 148.599 218.886 148.647 218.832 148.684Z" fill="#F4E3E0"/>
<path d="M272.01 156.262C271.988 156.211 271.955 156.164 271.914 156.126C271.874 156.087 271.825 156.056 271.772 156.036C271.719 156.015 271.663 156.005 271.606 156.006C271.549 156.006 271.493 156.018 271.44 156.04C262.154 159.851 259.544 158.034 258.906 157.07C258.764 156.875 258.656 156.658 258.587 156.428C259.756 156.319 260.841 155.79 261.629 154.943C261.8 154.644 262.062 153.835 260.855 153.182C260.479 152.962 260.034 152.883 259.602 152.958C259.17 153.034 258.781 153.259 258.507 153.592C257.961 154.187 257.654 154.954 257.641 155.752C255.34 156.102 252.984 155.778 250.873 154.821C250.216 154.486 249.508 154.254 248.776 154.135C248.466 153.368 247.965 152.688 247.319 152.155C246.673 151.621 245.902 151.251 245.073 151.077C238.521 149.171 231.161 157.248 230.841 157.591C230.762 157.672 230.718 157.779 230.718 157.89C230.718 158.002 230.762 158.109 230.841 158.189C230.922 158.266 231.031 158.309 231.143 158.309C231.256 158.309 231.365 158.266 231.445 158.189C231.514 158.112 238.761 150.169 244.777 151.93C245.417 152.058 246.019 152.323 246.539 152.706C247.06 153.09 247.486 153.582 247.785 154.146C246.588 154.139 245.417 154.483 244.424 155.132C243.967 155.384 243.587 155.75 243.323 156.192C243.059 156.634 242.919 157.135 242.92 157.646C242.986 158.004 243.154 158.337 243.407 158.605C243.659 158.874 243.984 159.068 244.344 159.164C244.664 159.283 245.004 159.343 245.347 159.341C246.118 159.33 246.859 159.047 247.432 158.544C247.929 158.114 248.32 157.582 248.576 156.985C248.833 156.389 248.948 155.744 248.913 155.098C249.445 155.21 249.959 155.393 250.44 155.641C252.71 156.659 255.237 157.009 257.71 156.649C257.794 157 257.949 157.332 258.166 157.624C259.168 159.031 262.268 160.793 271.839 156.893C271.896 156.866 271.947 156.827 271.987 156.779C272.027 156.731 272.056 156.675 272.073 156.615C272.089 156.555 272.092 156.493 272.081 156.432C272.07 156.371 272.046 156.313 272.01 156.262ZM246.851 157.835C246.559 158.102 246.198 158.286 245.806 158.368C245.415 158.45 245.008 158.427 244.629 158.3C244.264 158.167 243.808 157.912 243.751 157.469C243.778 157.112 243.896 156.766 244.095 156.464C244.294 156.162 244.568 155.914 244.891 155.741C245.737 155.19 246.733 154.897 247.751 154.899H248.013C248.077 155.443 248.004 155.994 247.802 156.505C247.6 157.017 247.273 157.473 246.851 157.835ZM259.088 154.157C259.188 154.04 259.311 153.944 259.45 153.876C259.59 153.807 259.742 153.767 259.897 153.758C260.064 153.761 260.226 153.811 260.365 153.902C260.991 154.256 260.866 154.467 260.832 154.533C260.195 155.148 259.365 155.538 258.473 155.641C258.5 155.093 258.717 154.57 259.088 154.157ZM261.869 169.822C261.869 169.933 261.823 170.04 261.742 170.119C261.661 170.198 261.551 170.243 261.436 170.243H229.03C228.915 170.243 228.805 170.198 228.724 170.119C228.642 170.04 228.597 169.933 228.597 169.822C228.594 169.765 228.603 169.708 228.623 169.655C228.643 169.602 228.675 169.554 228.716 169.513C228.756 169.473 228.805 169.441 228.859 169.419C228.913 169.398 228.971 169.388 229.03 169.39H261.459C261.515 169.391 261.57 169.403 261.622 169.426C261.673 169.449 261.719 169.481 261.758 169.521C261.796 169.562 261.825 169.609 261.844 169.661C261.864 169.712 261.872 169.767 261.869 169.822ZM260.593 177.244C260.593 177.354 260.549 177.459 260.47 177.538C260.391 177.617 260.284 177.662 260.171 177.665H227.731C227.616 177.665 227.506 177.621 227.425 177.542C227.343 177.463 227.298 177.356 227.298 177.244C227.298 177.133 227.343 177.026 227.425 176.947C227.506 176.868 227.616 176.823 227.731 176.823H260.171C260.284 176.826 260.391 176.872 260.47 176.95C260.549 177.029 260.593 177.135 260.593 177.244ZM259.533 185.287C259.53 185.397 259.483 185.501 259.402 185.578C259.321 185.654 259.213 185.697 259.1 185.697H226.671C226.609 185.707 226.546 185.704 226.485 185.687C226.425 185.671 226.369 185.642 226.321 185.603C226.273 185.563 226.234 185.514 226.208 185.458C226.182 185.403 226.168 185.343 226.168 185.282C226.168 185.221 226.182 185.16 226.208 185.105C226.234 185.05 226.273 185 226.321 184.961C226.369 184.921 226.425 184.892 226.485 184.876C226.546 184.86 226.609 184.856 226.671 184.866H259.1C259.215 184.866 259.325 184.911 259.406 184.99C259.487 185.069 259.533 185.176 259.533 185.287ZM258.473 192.089C258.47 192.199 258.423 192.303 258.342 192.38C258.262 192.457 258.153 192.499 258.04 192.499H225.611C225.549 192.509 225.486 192.506 225.426 192.489C225.365 192.473 225.309 192.444 225.261 192.405C225.213 192.365 225.175 192.316 225.148 192.261C225.122 192.205 225.108 192.145 225.108 192.084C225.108 192.023 225.122 191.963 225.148 191.907C225.175 191.852 225.213 191.803 225.261 191.763C225.309 191.724 225.365 191.695 225.426 191.678C225.486 191.662 225.549 191.659 225.611 191.668H258.04C258.097 191.668 258.153 191.679 258.206 191.7C258.258 191.722 258.306 191.753 258.346 191.792C258.387 191.831 258.418 191.877 258.44 191.928C258.462 191.979 258.473 192.034 258.473 192.089Z" fill="black"/>
<path d="M286.663 14.8341C286.663 14.8341 290.902 33.7893 279.667 32.759L280.305 41.2119L278.607 47.8589L269.07 39.7717C270.617 34.9376 270.617 29.7606 269.07 24.9265C269.07 24.9265 264.193 26.5772 264.615 21.2153C265.036 15.8533 269.07 18.7226 269.07 18.7226C269.07 18.7226 273.309 14.3909 273.73 10.4802C273.73 10.5024 280.305 15.6539 286.663 14.8341Z" fill="#F4E3E0"/>
<path d="M278.607 48.2245C278.503 48.2257 278.402 48.1903 278.322 48.1248L268.785 40.0819C268.718 40.0257 268.671 39.9505 268.651 39.8671C268.631 39.7836 268.638 39.696 268.671 39.6166C270.131 35.0013 270.167 30.071 268.774 25.4361C268.212 25.5949 267.621 25.6356 267.041 25.5554C266.462 25.4751 265.907 25.2759 265.412 24.9709C264.455 24.2508 264.045 22.9767 264.193 21.182C264.341 19.3873 264.911 18.1908 265.914 17.7477C266.43 17.5882 266.977 17.5462 267.512 17.625C268.047 17.7037 268.557 17.9011 269.002 18.2019C269.879 17.227 272.955 13.6597 273.309 10.447C273.314 10.3715 273.342 10.2991 273.388 10.2382C273.435 10.1774 273.498 10.1307 273.571 10.1036C273.642 10.0762 273.72 10.0679 273.797 10.0796C273.873 10.0913 273.944 10.1225 274.004 10.17C274.061 10.17 280.51 15.1996 286.606 14.402C286.714 14.3886 286.824 14.4154 286.912 14.4771C287.001 14.5387 287.063 14.6306 287.085 14.7344C287.187 15.2107 289.66 26.5108 285.375 31.208C284.723 31.9161 283.909 32.4655 282.999 32.8118C282.089 33.1582 281.107 33.2919 280.134 33.2021L280.738 41.1676C280.744 41.2117 280.744 41.2564 280.738 41.3005L279.04 47.9476C279.023 48.0186 278.986 48.0837 278.934 48.1363C278.882 48.1889 278.816 48.227 278.744 48.2467L278.607 48.2245ZM269.571 39.6387L278.356 47.0502L279.872 41.1786L279.245 32.7922C279.24 32.7313 279.249 32.67 279.27 32.6126C279.292 32.5552 279.326 32.5031 279.371 32.4599C279.413 32.4151 279.467 32.3815 279.527 32.3621C279.587 32.3427 279.65 32.3383 279.712 32.3491C280.628 32.4867 281.564 32.4052 282.439 32.1118C283.315 31.8184 284.104 31.3218 284.737 30.6652C288.315 26.7434 286.709 17.2713 286.321 15.2883C281.023 15.7868 275.77 12.4743 274.049 11.2557C273.252 15.0446 269.549 18.8666 269.378 19.0106C269.302 19.0792 269.202 19.1172 269.098 19.1172C268.995 19.1172 268.895 19.0792 268.819 19.0106C268.819 19.0106 267.327 17.9693 266.267 18.4456C265.583 18.7448 265.127 19.6975 265.048 21.182C264.921 21.7233 264.937 22.2867 265.092 22.8208C265.247 23.3549 265.537 23.8427 265.936 24.2397C266.392 24.4787 266.894 24.6228 267.41 24.6629C267.926 24.7029 268.444 24.638 268.933 24.4723C268.985 24.4479 269.041 24.4351 269.098 24.4351C269.156 24.4351 269.212 24.4479 269.264 24.4723C269.316 24.4979 269.362 24.5337 269.399 24.5776C269.437 24.6214 269.464 24.6724 269.48 24.7271C271.039 29.5776 271.071 34.7706 269.571 39.6387Z" fill="black"/>
<path d="M229.395 323.58H127.482L133.179 297.202H236.243L229.395 323.58Z" fill="black"/>
<path d="M225.611 319.049H123.665L129.362 292.671H232.448L225.611 319.049Z" fill="#F4E3E0"/>
<path d="M225.611 319.47H123.665C123.601 319.47 123.538 319.456 123.481 319.429C123.424 319.402 123.374 319.363 123.334 319.314C123.295 319.265 123.266 319.208 123.25 319.147C123.235 319.086 123.232 319.022 123.243 318.96L128.94 292.582C128.957 292.488 129.007 292.403 129.082 292.342C129.157 292.281 129.253 292.248 129.35 292.25H232.448C232.513 292.251 232.577 292.266 232.636 292.292C232.695 292.319 232.747 292.357 232.79 292.405C232.829 292.457 232.855 292.517 232.867 292.58C232.878 292.643 232.876 292.708 232.858 292.77L226.022 319.148C225.999 319.238 225.947 319.318 225.872 319.377C225.798 319.435 225.707 319.467 225.611 319.47ZM124.2 318.628H225.247L231.867 293.081H129.715L124.2 318.628Z" fill="black"/>
<path d="M158.099 295.064C158.016 294.987 157.906 294.943 157.791 294.943C157.677 294.943 157.566 294.987 157.484 295.064L154.464 297.7L154.601 296.449C154.606 296.388 154.597 296.326 154.576 296.269C154.554 296.211 154.52 296.159 154.475 296.116C154.437 296.069 154.386 296.032 154.328 296.01C154.269 295.989 154.206 295.983 154.145 295.994L147.57 296.404C147.466 296.41 147.368 296.452 147.294 296.524C147.221 296.595 147.177 296.691 147.172 296.792L146.75 301.943C146.744 302.053 146.782 302.161 146.856 302.244C146.931 302.327 147.036 302.378 147.149 302.387L153.507 302.808C153.614 302.808 153.718 302.77 153.798 302.7C153.878 302.631 153.929 302.535 153.94 302.431L154.304 298.941L158.042 295.684C158.088 295.648 158.127 295.602 158.155 295.551C158.184 295.5 158.201 295.444 158.206 295.386C158.212 295.328 158.205 295.269 158.186 295.214C158.168 295.159 158.138 295.108 158.099 295.064ZM153.154 301.91L147.639 301.556L147.992 297.18L153.689 296.825L153.507 298.498L151.627 300.115L149.792 298.509C149.753 298.462 149.703 298.424 149.647 298.397C149.591 298.371 149.529 298.356 149.466 298.355C149.404 298.353 149.342 298.365 149.284 298.39C149.227 298.414 149.176 298.45 149.134 298.495C149.092 298.541 149.061 298.594 149.043 298.652C149.025 298.711 149.02 298.772 149.028 298.832C149.036 298.892 149.058 298.95 149.092 299.002C149.125 299.053 149.17 299.097 149.223 299.129L151.342 300.98C151.418 301.051 151.52 301.091 151.627 301.091C151.733 301.091 151.835 301.051 151.912 300.98L153.382 299.706L153.154 301.91ZM156.845 305.754L153.826 308.391L153.963 307.139C153.967 307.079 153.959 307.019 153.94 306.962C153.92 306.905 153.889 306.852 153.849 306.807C153.806 306.761 153.753 306.725 153.693 306.702C153.634 306.679 153.57 306.67 153.507 306.674L146.932 307.084C146.829 307.091 146.732 307.135 146.659 307.206C146.586 307.277 146.541 307.371 146.533 307.472L146.112 312.623C146.107 312.678 146.114 312.734 146.131 312.787C146.149 312.84 146.177 312.889 146.214 312.931C146.251 312.973 146.296 313.008 146.347 313.033C146.398 313.058 146.454 313.073 146.511 313.077L152.869 313.487C152.975 313.488 153.077 313.449 153.155 313.379C153.234 313.309 153.282 313.213 153.29 313.111L153.666 309.621L157.392 306.375C157.44 306.339 157.479 306.295 157.508 306.244C157.537 306.193 157.554 306.136 157.559 306.078C157.565 306.02 157.558 305.962 157.538 305.907C157.519 305.852 157.489 305.801 157.448 305.758C157.408 305.715 157.359 305.68 157.304 305.657C157.25 305.633 157.19 305.621 157.131 305.62C157.071 305.62 157.011 305.632 156.956 305.655C156.901 305.678 156.852 305.712 156.811 305.754H156.845ZM152.516 312.623L146.989 312.302L147.354 307.937L153.051 307.571L152.88 309.255L150.989 310.895L149.154 309.288C149.073 309.212 148.965 309.169 148.852 309.169C148.739 309.169 148.631 309.212 148.55 309.288C148.51 309.327 148.478 309.372 148.456 309.423C148.434 309.473 148.423 309.527 148.423 309.582C148.423 309.637 148.434 309.691 148.456 309.741C148.478 309.792 148.51 309.837 148.55 309.876L150.67 311.737C150.75 311.802 150.85 311.837 150.954 311.837C151.059 311.837 151.159 311.802 151.239 311.737L152.709 310.452L152.516 312.623Z" fill="black"/>
<path d="M210.799 299.473H163.284C163.227 299.473 163.171 299.462 163.119 299.441C163.068 299.419 163.021 299.388 162.981 299.349C162.942 299.31 162.911 299.263 162.891 299.212C162.87 299.161 162.86 299.107 162.862 299.052C162.86 298.998 162.87 298.944 162.891 298.893C162.911 298.843 162.942 298.797 162.982 298.759C163.021 298.72 163.068 298.69 163.12 298.67C163.172 298.65 163.228 298.641 163.284 298.642H210.799C210.91 298.642 211.018 298.685 211.097 298.762C211.176 298.839 211.22 298.943 211.22 299.052C211.22 299.162 211.176 299.267 211.097 299.346C211.019 299.424 210.912 299.47 210.799 299.473ZM210.377 309.156C210.377 309.044 210.331 308.937 210.25 308.858C210.169 308.779 210.059 308.735 209.944 308.735H162.44C162.325 308.735 162.215 308.779 162.134 308.858C162.053 308.937 162.007 309.044 162.007 309.156C162.007 309.267 162.053 309.374 162.134 309.453C162.215 309.532 162.325 309.576 162.44 309.576H209.921C210.036 309.576 210.146 309.532 210.227 309.453C210.309 309.374 210.354 309.267 210.354 309.156H210.377Z" fill="black"/>
<path d="M142.044 173.012C141.526 169.625 139.933 166.48 137.486 164.017C137.486 149.426 134.364 143.521 132.234 141.206C132.009 140.961 131.735 140.764 131.43 140.625C131.124 140.486 130.793 140.408 130.456 140.397C130.122 140.386 129.789 140.44 129.477 140.559C129.165 140.677 128.882 140.856 128.644 141.084C126.867 142.757 125.591 145.981 124.668 149.836C124.638 149.871 124.612 149.908 124.588 149.947C124.566 149.998 124.554 150.052 124.554 150.108C124.554 150.163 124.566 150.217 124.588 150.268C123.661 154.653 123.052 159.095 122.765 163.562C120.035 166.078 118.246 169.408 117.683 173.023C116.896 178.961 116.896 182.495 122.844 175.173C123.37 175.967 124.183 176.54 125.123 176.779C125 177.096 124.942 177.433 124.954 177.772C124.966 178.11 125.047 178.443 125.192 178.751C125.416 179.079 125.724 179.345 126.086 179.523C126.447 179.702 126.849 179.787 127.254 179.77H127.915C129.054 179.848 130.057 179.914 130.969 179.914C132.553 179.914 133.749 179.693 134.136 178.806C134.443 178.138 134.591 177.411 134.569 176.679C135.062 176.545 135.52 176.31 135.913 175.992C136.305 175.673 136.624 175.277 136.848 174.829C142.83 182.573 142.83 179.017 142.044 173.012ZM129.191 141.694C129.496 141.406 129.906 141.247 130.331 141.25C130.546 141.26 130.758 141.311 130.954 141.4C131.149 141.49 131.325 141.616 131.47 141.771C132.45 142.879 134.034 145.194 135.162 150.002C131.992 151.011 128.569 150.98 125.42 149.914C126.365 146.258 127.619 143.222 129.191 141.694ZM127.858 178.984H127.186C126.924 179.003 126.662 178.959 126.423 178.855C126.184 178.75 125.976 178.589 125.818 178.385C125.722 178.165 125.673 177.927 125.673 177.687C125.673 177.448 125.722 177.21 125.818 176.989C127.222 177.189 128.639 177.292 130.057 177.3C131.226 177.308 132.392 177.216 133.544 177.023C133.543 177.569 133.423 178.109 133.191 178.607C132.86 179.36 130.08 179.139 127.858 178.973V178.984ZM136.142 173.721C136.071 174.298 135.811 174.838 135.401 175.261C134.99 175.684 134.451 175.967 133.863 176.07C131.132 176.559 128.333 176.559 125.602 176.07C124.926 175.998 124.3 175.692 123.837 175.208C123.375 174.724 123.107 174.094 123.084 173.433C123.152 169.301 123.483 158.777 125.26 150.745C126.871 151.309 128.573 151.591 130.285 151.576C132.008 151.563 133.72 151.305 135.367 150.811C136.461 155.719 137.019 162.997 136.142 173.71V173.721ZM129.898 154.035C129.183 154.035 128.485 154.241 127.891 154.627C127.297 155.013 126.834 155.561 126.561 156.203C126.287 156.845 126.216 157.551 126.355 158.232C126.494 158.913 126.838 159.539 127.344 160.03C127.849 160.521 128.492 160.856 129.193 160.991C129.894 161.127 130.62 161.057 131.28 160.791C131.94 160.526 132.504 160.075 132.901 159.498C133.298 158.92 133.51 158.241 133.51 157.547C133.507 156.616 133.125 155.725 132.448 155.067C131.772 154.409 130.855 154.038 129.898 154.035ZM129.898 160.228C129.352 160.228 128.819 160.071 128.366 159.776C127.912 159.481 127.559 159.063 127.35 158.573C127.141 158.083 127.087 157.544 127.193 157.024C127.3 156.504 127.562 156.026 127.948 155.651C128.333 155.276 128.825 155.021 129.36 154.917C129.895 154.814 130.449 154.867 130.953 155.07C131.457 155.273 131.887 155.616 132.19 156.057C132.493 156.498 132.655 157.017 132.655 157.547C132.655 158.258 132.365 158.94 131.847 159.443C131.33 159.945 130.629 160.228 129.898 160.228Z" fill="black"/>
<path d="M157.997 234.753H157.928C152.721 233.855 145.394 232.005 141.429 226.366C139.774 223.996 138.973 221.16 139.15 218.301C137.934 218.118 136.77 217.692 135.732 217.049C132.644 214.978 131.231 211.399 130.593 208.751C128.794 200.599 128.237 192.234 128.941 183.925C128.942 183.869 128.955 183.815 128.979 183.764C129.003 183.714 129.038 183.67 129.081 183.633C129.123 183.597 129.174 183.569 129.228 183.553C129.282 183.536 129.34 183.531 129.396 183.537C129.453 183.54 129.508 183.553 129.559 183.577C129.61 183.601 129.655 183.635 129.692 183.676C129.729 183.718 129.758 183.766 129.775 183.818C129.793 183.87 129.8 183.925 129.795 183.98C129.102 192.208 129.651 200.49 131.425 208.563C132.028 211.056 133.362 214.446 136.222 216.318C137.14 216.883 138.168 217.26 139.241 217.426C139.489 215.672 140.195 214.009 141.292 212.596C141.834 211.867 142.575 211.301 143.431 210.96C144.286 210.619 145.223 210.518 146.135 210.668C146.834 210.767 147.492 211.047 148.039 211.48C148.587 211.913 149.004 212.483 149.246 213.127C149.405 213.752 149.374 214.407 149.158 215.015C148.941 215.622 148.548 216.156 148.026 216.551C146.215 218.224 142.933 218.766 140.05 218.467C139.9 221.118 140.644 223.743 142.17 225.945C145.907 231.318 153.063 233.102 158.122 233.977C158.224 234 158.314 234.058 158.376 234.141C158.437 234.223 158.466 234.325 158.456 234.426C158.446 234.528 158.399 234.623 158.323 234.693C158.247 234.763 158.147 234.804 158.042 234.808L157.997 234.753ZM140.153 217.603C142.842 217.891 145.85 217.393 147.491 215.93C147.89 215.638 148.195 215.24 148.371 214.785C148.546 214.33 148.585 213.836 148.482 213.36C148.286 212.862 147.955 212.424 147.524 212.094C147.092 211.765 146.577 211.555 146.032 211.488C145.278 211.357 144.5 211.439 143.792 211.724C143.083 212.008 142.473 212.484 142.033 213.094C141.016 214.414 140.369 215.968 140.153 217.603Z" fill="black"/>
<path d="M346.849 322.095C346.849 322.095 346.849 322.095 346.849 322.162C345.724 329.108 342.088 335.436 336.594 340.009L320.836 322.106L324.505 296.792C338.885 296.792 348.889 308.114 346.849 322.095ZM301.271 300.88C295.351 305.816 291.436 312.643 290.23 320.134L318.26 320.201L322.226 292.926C314.5 293.049 307.078 295.873 301.317 300.88H301.271ZM319.4 323.38L293.386 323.314V323.38C291.347 337.35 301.362 348.683 315.731 348.683C322.918 348.575 329.823 345.952 335.181 341.294L319.4 323.38Z" fill="#CB6CE6"/>
<path d="M79.9782 143.444C79.9782 143.444 87.8176 166.941 74.8849 166.11L72.982 172.093L61.1089 167.562L64.7096 138.758L79.9782 143.444Z" fill="black"/>
<path d="M54.7505 174.663L58.0321 166.631L78.9183 174.386L75.7278 182.141" fill="#F4E3E0"/>
<path d="M75.7396 182.507C75.6831 182.517 75.6251 182.517 75.5686 182.507C75.5166 182.486 75.4693 182.455 75.4296 182.417C75.3898 182.378 75.3584 182.332 75.3372 182.282C75.3159 182.231 75.3053 182.177 75.3059 182.122C75.3066 182.068 75.3184 182.014 75.3408 181.964L78.3489 174.63L58.2718 167.174L55.1497 174.818C55.1088 174.922 55.0271 175.007 54.9224 175.052C54.8177 175.098 54.6986 175.101 54.5913 175.062C54.5383 175.042 54.4898 175.013 54.4489 174.974C54.4079 174.936 54.3753 174.891 54.3529 174.84C54.3306 174.789 54.319 174.735 54.3188 174.68C54.3187 174.624 54.33 174.57 54.352 174.519L57.6337 166.476C57.6538 166.426 57.6839 166.38 57.7224 166.341C57.7608 166.302 57.8067 166.271 57.8575 166.249C57.9083 166.228 57.963 166.216 58.0184 166.215C58.0739 166.214 58.129 166.224 58.1806 166.243L79.0668 173.998C79.1716 174.041 79.2567 174.12 79.306 174.22C79.3461 174.327 79.3461 174.445 79.306 174.552L76.127 182.307C76.0856 182.37 76.0282 182.422 75.9603 182.457C75.8924 182.491 75.8164 182.509 75.7396 182.507Z" fill="black"/>
<path d="M67.0454 133.551C67.0454 133.551 73.1871 130.659 77.2207 134.171C81.2544 137.683 83.3624 143.444 83.3624 143.444L72.3439 145.294L70.008 141.383C70.2322 146.14 69.9496 150.907 69.1648 155.608C67.8886 161.579 72.7655 166.531 76.7991 168.592C76.7991 168.592 54.1127 170.442 45.2021 165.911C45.2021 165.911 50.7171 161.579 50.079 156.018C49.4409 150.457 46.6606 140.508 51.7768 136.642C56.8929 132.775 61.1089 132.111 67.0454 133.551Z" fill="#F4E3E0"/>
<path d="M66.2707 169.39C59.0807 169.39 49.9993 168.814 45.0085 166.277C44.9452 166.244 44.8912 166.196 44.8514 166.138C44.8116 166.08 44.7873 166.014 44.7806 165.944C44.7752 165.875 44.7868 165.806 44.8146 165.743C44.8423 165.679 44.8854 165.623 44.9401 165.579C44.9401 165.579 50.2614 161.325 49.6574 156.062C49.5435 155.11 49.3726 154.024 49.1903 152.872C48.3129 147.332 47.1051 139.71 51.4692 136.254C56.3802 132.476 60.7329 131.568 66.9543 133.052C67.9456 132.62 73.5631 130.416 77.4601 133.795C80.2225 136.471 82.3599 139.694 83.7271 143.244C83.7522 143.3 83.7651 143.361 83.7651 143.422C83.7651 143.483 83.7522 143.543 83.7271 143.599C83.6942 143.65 83.651 143.694 83.6001 143.728C83.5491 143.763 83.4915 143.786 83.4308 143.798L72.4009 145.649C72.3146 145.666 72.2248 145.656 72.1448 145.62C72.0647 145.584 71.9987 145.524 71.9565 145.449L70.4752 142.968C70.611 147.207 70.3094 151.449 69.5751 155.63C68.4356 161.048 72.606 165.922 76.9815 168.16C77.0641 168.202 77.1302 168.269 77.1693 168.351C77.2085 168.433 77.2186 168.526 77.198 168.614C77.1828 168.703 77.1375 168.783 77.0693 168.844C77.0011 168.904 76.9139 168.94 76.822 168.947C76.4232 169.035 71.9337 169.39 66.2707 169.39ZM45.977 165.811C53.6911 169.29 70.4524 168.57 75.3749 168.271C71.2045 165.656 67.6038 160.848 68.7433 155.519C69.5177 150.855 69.8002 146.126 69.5865 141.405C69.5796 141.313 69.6052 141.221 69.659 141.145C69.7128 141.068 69.7917 141.012 69.8827 140.984C69.9759 140.956 70.0761 140.96 70.1671 140.994C70.2581 141.028 70.3345 141.091 70.3841 141.173L72.5604 144.84L82.8155 143.123C81.5102 139.879 79.5232 136.936 76.9815 134.481C73.2099 131.158 67.3303 133.894 67.2734 133.928C67.1815 133.961 67.0804 133.961 66.9885 133.928C60.9038 132.454 56.8702 133.274 52.0959 136.952C48.0736 140.032 49.2358 147.366 50.0904 152.728C50.2727 153.891 50.4437 154.943 50.5576 155.951C51.059 160.748 47.3557 164.571 45.977 165.811Z" fill="black"/>
<path d="M92.6376 222.356C97.8449 232.67 102.745 247.77 87.8178 249.387C85.5211 249.646 83.2028 249.668 80.9013 249.454L44.1426 249.797C44.1426 249.797 44.9972 200.531 45.4188 193.53C45.8404 186.528 50.9337 172.481 58.135 173.334C65.408 174.354 72.176 177.544 77.5057 182.462L83.7043 178.795L93.4353 188.478L87.8064 195.856C89.037 197.44 89.7206 198.271 89.7206 198.271L110.709 187.758L119.403 200.742C119.403 200.742 104.363 216.772 92.6376 222.356Z" fill="#CB6CE6"/>
<path d="M84.8438 179.925C85.8188 179.255 86.7405 178.514 87.6012 177.71C88.3419 176.89 91.84 168.127 92.0565 167.739C92.273 167.351 100.112 165.158 102.551 165.368C104.989 165.579 98.0956 167.949 97.2524 169.589C96.6303 171.316 96.2732 173.123 96.1927 174.951C96.1927 174.951 100.75 169.589 101.81 169.7C102.87 169.811 98.7337 179.172 96.3978 180.723C94.0619 182.274 91.4184 186.595 91.4184 186.595L84.8438 179.925ZM117.66 198.626C117.66 198.626 126.719 191.059 128.941 188.422C129.79 187.548 130.338 186.438 130.51 185.247C130.681 184.056 130.467 182.843 129.898 181.775C129.1 179.925 130.217 174.663 128.758 174.519C127.3 174.375 124.2 183.947 122.4 183.947C120.6 183.947 123.836 175.283 122.993 174.862C122.149 174.441 120.338 179.46 117.797 182.706C116.273 184.633 115.334 186.935 115.085 189.353L112.384 189.973L117.66 198.626Z" fill="black"/>
<path d="M85.9715 224.583C84.86 224.626 83.7531 224.421 82.7355 223.984C69.8711 217.836 58.1119 201.141 57.998 200.974C57.9662 200.93 57.9438 200.881 57.9323 200.828C57.9208 200.775 57.9204 200.721 57.931 200.668C57.9416 200.615 57.9632 200.565 57.9943 200.521C58.0253 200.476 58.0654 200.438 58.1119 200.409C58.1581 200.378 58.2102 200.356 58.2652 200.345C58.3202 200.334 58.377 200.333 58.4322 200.343C58.4874 200.354 58.5399 200.375 58.5867 200.405C58.6334 200.435 58.6735 200.475 58.7044 200.52C58.8184 200.686 70.4522 217.138 83.1343 223.253C83.1343 223.253 86.4501 224.871 92.2499 222.223C92.3017 222.189 92.3604 222.167 92.4219 222.157C92.4834 222.148 92.5463 222.151 92.6064 222.167C92.6664 222.183 92.7222 222.212 92.7698 222.251C92.8174 222.29 92.8558 222.339 92.8823 222.394C92.9088 222.448 92.9229 222.508 92.9235 222.569C92.9241 222.629 92.9113 222.689 92.8859 222.745C92.8604 222.8 92.823 222.849 92.7762 222.889C92.7294 222.929 92.6742 222.959 92.6145 222.976C90.552 223.989 88.2817 224.538 85.9715 224.583Z" fill="black"/>
<path d="M70.4295 359.707L69.9623 365.578C69.9623 365.578 93.0134 372.38 91.4182 374.696C89.8229 377.011 58.0322 375.006 58.0322 375.006V358.931L70.4295 359.707Z" fill="black"/>
<path d="M20.3506 315.958L11.611 319.204C11.611 319.204 8.1129 341.926 5.401 342.214C2.68911 342.502 0 313.332 0 313.332L17.6501 303.794L20.3506 315.958Z" fill="black"/>
<path d="M84.4219 249.155L78.9184 360.061L54.3176 358.621L47.9595 249.797L84.4219 249.155Z" fill="#F4E3E0"/>
<path d="M78.9182 360.482L54.3288 359.042C54.2239 359.034 54.1255 358.989 54.052 358.916C53.9786 358.842 53.9353 358.745 53.93 358.643L47.5377 249.819C47.5347 249.763 47.5432 249.707 47.5629 249.654C47.5826 249.601 47.6129 249.552 47.6522 249.511C47.6915 249.47 47.739 249.437 47.7917 249.413C47.8445 249.39 47.9014 249.378 47.9593 249.376L84.4218 248.756C84.4805 248.75 84.5397 248.76 84.5936 248.783C84.6475 248.806 84.6943 248.843 84.7294 248.889C84.7721 248.929 84.8054 248.977 84.827 249.03C84.8486 249.084 84.8581 249.141 84.8548 249.199L79.3398 360.083C79.3385 360.138 79.3257 360.191 79.3022 360.241C79.2786 360.291 79.2449 360.335 79.2031 360.371C79.1655 360.407 79.1209 360.435 79.072 360.454C79.0232 360.473 78.9709 360.483 78.9182 360.482ZM54.7277 358.266L78.508 359.662L83.9774 249.642L48.4151 250.262L54.7277 358.266Z" fill="black"/>
<path d="M346.017 302.974C345.935 302.974 345.855 302.951 345.786 302.908C345.718 302.865 345.663 302.803 345.63 302.73C345.584 302.629 345.58 302.513 345.621 302.41C345.662 302.306 345.743 302.222 345.846 302.176C346.268 301.999 383.745 285.957 389.396 265.517C379.836 272.442 373.114 269.949 370.322 268.309C367.356 266.365 365.147 263.508 364.052 260.197C362.957 256.886 363.038 253.313 364.283 250.052C366.847 244.025 373.398 240.336 379.506 241.466C386.491 242.751 390.786 249.72 390.969 260.089C390.991 261.202 390.911 262.314 390.729 263.413C392.672 261.806 394.485 260.058 396.153 258.184C407.024 246.13 410.226 234.985 410.966 227.762C411.53 223.457 411.216 219.087 410.043 214.9C410.007 214.796 410.013 214.681 410.062 214.582C410.111 214.483 410.199 214.406 410.305 214.368C410.414 214.333 410.533 214.341 410.635 214.391C410.738 214.441 410.816 214.528 410.852 214.634C412.086 218.931 412.416 223.427 411.821 227.851C411.046 235.196 407.798 246.518 396.78 258.737C394.852 260.904 392.736 262.905 390.456 264.72C388.553 273.128 381.112 281.947 368.67 290.488C361.573 295.298 354.04 299.47 346.166 302.952C346.118 302.968 346.068 302.975 346.017 302.974ZM377.273 242.098C374.635 242.183 372.079 243.009 369.914 244.476C367.749 245.942 366.066 247.987 365.069 250.362C363.9 253.441 363.826 256.812 364.858 259.937C365.891 263.062 367.971 265.76 370.766 267.6C376.076 270.813 382.742 269.55 389.704 264.21C389.991 262.862 390.124 261.488 390.103 260.111C389.92 250.141 385.898 243.493 379.335 242.286C378.655 242.159 377.965 242.096 377.273 242.098Z" fill="black"/>
</svg>
